<?xml version="1.0" encoding="utf-8"?>
<!-- Generator: Adobe Illustrator 25.2.0, SVG Export Plug-In . SVG Version: 6.00 Build 0)  -->
<svg version="1.1" id="Layer" xmlns="http://www.w3.org/2000/svg" xmlns:xlink="http://www.w3.org/1999/xlink" x="0px" y="0px"
	 viewBox="0 0 1193 715" style="enable-background:new 0 0 1193 715;" xml:space="preserve">
<style type="text/css">
	.st0{fill-rule:evenodd;clip-rule:evenodd;fill:url(#seat1_1_);stroke:#FFFFFF;stroke-width:0.25;stroke-miterlimit:11.7338;}
	.st1{fill-rule:evenodd;clip-rule:evenodd;fill:url(#seat2_1_);stroke:#FFFFFF;stroke-width:0.25;stroke-miterlimit:11.7338;}
	.st2{fill-rule:evenodd;clip-rule:evenodd;fill:url(#seat3_1_);stroke:#FFFFFF;stroke-width:0.25;stroke-miterlimit:11.7338;}
	.st3{fill-rule:evenodd;clip-rule:evenodd;fill:url(#seat4_1_);stroke:#FFFFFF;stroke-width:0.25;stroke-miterlimit:11.7338;}
	.st4{fill-rule:evenodd;clip-rule:evenodd;fill:url(#seat5_1_);stroke:#FFFFFF;stroke-width:0.25;stroke-miterlimit:11.7338;}
	.st5{fill-rule:evenodd;clip-rule:evenodd;fill:url(#seat6_1_);stroke:#FFFFFF;stroke-width:0.25;stroke-miterlimit:11.7338;}
	.st6{fill-rule:evenodd;clip-rule:evenodd;fill:url(#seat7_1_);stroke:#FFFFFF;stroke-width:0.25;stroke-miterlimit:11.7338;}
	.st7{fill-rule:evenodd;clip-rule:evenodd;fill:url(#seat8_1_);stroke:#FFFFFF;stroke-width:0.25;stroke-miterlimit:11.7338;}
	.st8{fill-rule:evenodd;clip-rule:evenodd;fill:url(#seat9_1_);stroke:#FFFFFF;stroke-width:0.25;stroke-miterlimit:11.7338;}
	.st9{fill-rule:evenodd;clip-rule:evenodd;fill:url(#seat10_1_);stroke:#FFFFFF;stroke-width:0.25;stroke-miterlimit:11.7338;}
	.st10{fill-rule:evenodd;clip-rule:evenodd;fill:url(#seat11_1_);stroke:#FFFFFF;stroke-width:0.25;stroke-miterlimit:11.7338;}
	.st11{fill-rule:evenodd;clip-rule:evenodd;fill:url(#seat12_1_);stroke:#FFFFFF;stroke-width:0.25;stroke-miterlimit:11.7338;}
	.st12{fill-rule:evenodd;clip-rule:evenodd;fill:url(#seat13_1_);stroke:#FFFFFF;stroke-width:0.25;stroke-miterlimit:11.7338;}
	.st13{fill-rule:evenodd;clip-rule:evenodd;fill:url(#seat14_1_);stroke:#FFFFFF;stroke-width:0.25;stroke-miterlimit:11.7338;}
	.st14{fill-rule:evenodd;clip-rule:evenodd;fill:url(#seat15_1_);stroke:#FFFFFF;stroke-width:0.25;stroke-miterlimit:11.7338;}
	.st15{fill-rule:evenodd;clip-rule:evenodd;fill:url(#seat16_1_);stroke:#FFFFFF;stroke-width:0.25;stroke-miterlimit:11.7338;}
	.st16{fill-rule:evenodd;clip-rule:evenodd;fill:url(#seat17_1_);stroke:#FFFFFF;stroke-width:0.25;stroke-miterlimit:11.7338;}
	.st17{fill-rule:evenodd;clip-rule:evenodd;fill:url(#seat18_1_);stroke:#FFFFFF;stroke-width:0.25;stroke-miterlimit:11.7338;}
	.st18{fill-rule:evenodd;clip-rule:evenodd;fill:url(#seat19_1_);stroke:#FFFFFF;stroke-width:0.25;stroke-miterlimit:11.7338;}
	.st19{fill-rule:evenodd;clip-rule:evenodd;fill:url(#seat20_1_);stroke:#FFFFFF;stroke-width:0.25;stroke-miterlimit:11.7338;}
	.st20{fill-rule:evenodd;clip-rule:evenodd;fill:url(#seat21_1_);stroke:#FFFFFF;stroke-width:0.25;stroke-miterlimit:11.7338;}
	.st21{fill-rule:evenodd;clip-rule:evenodd;fill:url(#seat22_1_);stroke:#FFFFFF;stroke-width:0.25;stroke-miterlimit:11.7338;}
	.st22{fill-rule:evenodd;clip-rule:evenodd;fill:url(#seat23_1_);stroke:#FFFFFF;stroke-width:0.25;stroke-miterlimit:11.7338;}
	.st23{fill-rule:evenodd;clip-rule:evenodd;fill:url(#seat24_1_);stroke:#FFFFFF;stroke-width:0.25;stroke-miterlimit:11.7338;}
	.st24{fill-rule:evenodd;clip-rule:evenodd;fill:url(#seat25_1_);stroke:#FFFFFF;stroke-width:0.25;stroke-miterlimit:11.7338;}
	.st25{fill-rule:evenodd;clip-rule:evenodd;fill:url(#seat26_1_);stroke:#FFFFFF;stroke-width:0.25;stroke-miterlimit:11.7338;}
	.st26{fill-rule:evenodd;clip-rule:evenodd;fill:url(#seat27_1_);stroke:#FFFFFF;stroke-width:0.25;stroke-miterlimit:11.7338;}
	.st27{fill-rule:evenodd;clip-rule:evenodd;fill:url(#seat28_1_);stroke:#FFFFFF;stroke-width:0.25;stroke-miterlimit:11.7338;}
	.st28{fill-rule:evenodd;clip-rule:evenodd;fill:url(#seat29_1_);stroke:#FFFFFF;stroke-width:0.25;stroke-miterlimit:11.7338;}
	.st29{fill-rule:evenodd;clip-rule:evenodd;fill:url(#seat30_1_);stroke:#FFFFFF;stroke-width:0.25;stroke-miterlimit:11.7338;}
	.st30{fill-rule:evenodd;clip-rule:evenodd;fill:url(#grey_1_);stroke:#FFFFFF;stroke-width:0.25;stroke-miterlimit:11.7338;}
	.st31{fill-rule:evenodd;clip-rule:evenodd;fill:url(#red_1_);stroke:#FFFFFF;stroke-width:0.25;stroke-miterlimit:11.7338;}
	.st32{fill-rule:evenodd;clip-rule:evenodd;fill:url(#green_1_);stroke:#FFFFFF;stroke-width:0.25;stroke-miterlimit:11.7338;}
	.st33{fill:#DDDAC7;}
</style>
<radialGradient id="seat1_1_" cx="1126.2136" cy="577.7854" r="28.8145" gradientTransform="matrix(-1 0 0 -1 1210.4272 674.5532)" gradientUnits="userSpaceOnUse">
	<stop  offset="0" style="stop-color:#FFFFFF"/>
	<stop  offset="1" style="stop-color:#AFAFAF"/>
</radialGradient>
<path id="seat1" class="st0" d="M68.78,90.32v-5.47l0.65-2.73v-2.87l-0.65-2.73l-1.43-1.3h-2.08l-1.95,1.3l-1.43,1.43l-0.65,2.08
	l-0.65,3.39v3.39l-0.78,4.82v5.6l0.78,8.86l0.65,6.9l2.08,4.17l0.65,0.65l1.3,0.65l2.08-0.65l1.43-1.43l0.65-2.73l-0.65-4.82v-5.47
	h4.17v5.47l0.65,2.73l1.3,2.73l2.08,1.43l2.08,0.65h5.47v4.17h-5.47l-2.08,1.3l-0.65,1.43l-0.65,2.08l0.65,1.3l0.65,1.43l0.65,0.65
	l1.43,0.65h4.82h15.11l1.43-0.65l0.65-0.65l1.3-1.43v-1.3v-2.08l-1.3-1.43l-2.08-1.3h-6.25v-4.17h2.87l1.95-0.65l2.86-0.65
	l4.04-4.17l2.73-5.47l1.43-8.2l-1.43-8.99l-2.73-6.12l-4.04-3.52l-4.82-1.3h-2.87v-4.17h6.25l1.43-0.65l0.65-0.78l1.3-1.3v-2.08
	v-1.43l-1.3-1.3l-0.65-1.43h-1.43H83.89h-4.82h-1.43l-0.65,1.43l-0.65,1.3l-0.65,1.43l0.65,2.08l0.65,1.3l0.65,0.78l1.43,0.65h5.47
	v4.17h-5.47l-2.08,0.65l-2.08,1.3l-1.3,2.87l-0.65,2.73v5.47L68.78,90.32L68.78,90.32z M84.54,116.37h8.2H84.54z M92.74,120.54h-8.2
	H92.74z M84.54,73.13h8.2H84.54z M92.74,77.3h-8.2H92.74z M68.78,103.34V90.32C68.78,90.32,68.78,103.34,68.78,103.34z M72.95,90.32
	v13.02V90.32z"/>
<radialGradient id="seat2_1_" cx="1126.2136" cy="478.564" r="28.8145" gradientTransform="matrix(-1 0 0 -1 1210.4272 674.5532)" gradientUnits="userSpaceOnUse">
	<stop  offset="0" style="stop-color:#FFFFFF"/>
	<stop  offset="1" style="stop-color:#AFAFAF"/>
</radialGradient>
<path id="seat2" class="st1" d="M68.78,189.54v-5.47l0.65-2.73v-2.87l-0.65-2.73l-1.43-1.3h-2.08l-1.95,1.3l-1.43,1.43l-0.65,2.08
	l-0.65,3.39v3.39l-0.78,4.82v5.6l0.78,8.86l0.65,6.9l2.08,4.17l0.65,0.65l1.3,0.65l2.08-0.65l1.43-1.43l0.65-2.73l-0.65-4.82v-5.47
	h4.17v5.47l0.65,2.73l1.3,2.73l2.08,1.43l2.08,0.65h5.47v4.17h-5.47l-2.08,1.3l-0.65,1.43l-0.65,2.08l0.65,1.3l0.65,1.43l0.65,0.65
	l1.43,0.65h4.82h15.11l1.43-0.65l0.65-0.65l1.3-1.43v-1.3v-2.08l-1.3-1.43l-2.08-1.3h-6.25v-4.17h2.87l1.95-0.65l2.86-0.65
	l4.04-4.17l2.73-5.47l1.43-8.2l-1.43-8.99l-2.73-6.12l-4.04-3.52l-4.82-1.3h-2.87v-4.17h6.25l1.43-0.65l0.65-0.78l1.3-1.3v-2.08
	v-1.43l-1.3-1.3l-0.65-1.43h-1.43H83.89h-4.82h-1.43l-0.65,1.43l-0.65,1.3l-0.65,1.43l0.65,2.08l0.65,1.3l0.65,0.78l1.43,0.65h5.47
	v4.17h-5.47l-2.08,0.65l-2.08,1.3l-1.3,2.87l-0.65,2.73v5.47L68.78,189.54L68.78,189.54z M84.54,215.59h8.2H84.54z M92.74,219.76
	h-8.2H92.74z M84.54,172.35h8.2H84.54z M92.74,176.52h-8.2H92.74z M68.78,202.57v-13.02C68.78,189.54,68.78,202.57,68.78,202.57z
	 M72.95,189.54v13.02V189.54z"/>
<radialGradient id="seat3_1_" cx="1126.2136" cy="379.3427" r="28.8145" gradientTransform="matrix(-1 0 0 -1 1210.4272 674.5532)" gradientUnits="userSpaceOnUse">
	<stop  offset="0" style="stop-color:#FFFFFF"/>
	<stop  offset="1" style="stop-color:#AFAFAF"/>
</radialGradient>
<path id="seat3" class="st2" d="M68.78,288.76v-5.47l0.65-2.73v-2.87l-0.65-2.73l-1.43-1.3h-2.08l-1.95,1.3l-1.43,1.43l-0.65,2.08
	l-0.65,3.39v3.39l-0.78,4.82v5.6l0.78,8.86l0.65,6.9l2.08,4.17l0.65,0.65l1.3,0.65l2.08-0.65l1.43-1.43l0.65-2.73l-0.65-4.82v-5.47
	h4.17v5.47l0.65,2.73l1.3,2.73l2.08,1.43l2.08,0.65h5.47v4.17h-5.47l-2.08,1.3l-0.65,1.43l-0.65,2.08l0.65,1.3l0.65,1.43l0.65,0.65
	l1.43,0.65h4.82h15.11l1.43-0.65l0.65-0.65l1.3-1.43v-1.3v-2.08l-1.3-1.43l-2.08-1.3h-6.25v-4.17h2.87l1.95-0.65l2.86-0.65
	l4.04-4.17l2.73-5.47l1.43-8.2l-1.43-8.99l-2.73-6.12l-4.04-3.52l-4.82-1.3h-2.87v-4.17h6.25l1.43-0.65l0.65-0.78l1.3-1.3v-2.08
	v-1.43l-1.3-1.3l-0.65-1.43h-1.43H83.89h-4.82h-1.43l-0.65,1.43l-0.65,1.3l-0.65,1.43l0.65,2.08l0.65,1.3l0.65,0.78l1.43,0.65h5.47
	v4.17h-5.47l-2.08,0.65l-2.08,1.3l-1.3,2.87l-0.65,2.73v5.47L68.78,288.76L68.78,288.76z M84.54,314.81h8.2H84.54z M92.74,318.98
	h-8.2H92.74z M84.54,271.57h8.2H84.54z M92.74,275.74h-8.2H92.74z M68.78,301.79v-13.02C68.78,288.76,68.78,301.79,68.78,301.79z
	 M72.95,288.76v13.02V288.76z"/>
<radialGradient id="seat4_1_" cx="285.5813" cy="295.2105" r="28.8145" gradientUnits="userSpaceOnUse">
	<stop  offset="0" style="stop-color:#FFFFFF"/>
	<stop  offset="1" style="stop-color:#AFAFAF"/>
</radialGradient>
<path id="seat4" class="st3" d="M301.01,301.66v5.47l-0.65,2.73v2.87l0.65,2.73l1.43,1.3h2.08l1.95-1.3l1.43-1.43l0.65-2.08
	l0.65-3.39v-3.39l0.78-4.82v-5.6l-0.78-8.86l-0.65-6.9l-2.08-4.17l-0.65-0.65l-1.3-0.65l-2.08,0.65l-1.43,1.43l-0.65,2.73l0.65,4.82
	v5.47h-4.17v-5.47l-0.65-2.73l-1.3-2.73l-2.08-1.43l-2.08-0.65h-5.47v-4.17h5.47l2.08-1.3l0.65-1.43l0.65-2.08l-0.65-1.3l-0.65-1.43
	l-0.65-0.65l-1.43-0.65h-4.82H270.8l-1.43,0.65l-0.65,0.65l-1.3,1.43v1.3v2.08l1.3,1.43l2.08,1.3h6.25v4.17h-2.87l-1.95,0.65
	l-2.86,0.65l-4.04,4.17l-2.73,5.47l-1.43,8.2l1.43,8.99l2.73,6.12l4.04,3.52l4.82,1.3h2.87v4.17h-6.25l-1.43,0.65l-0.65,0.78
	l-1.3,1.3v2.08v1.43l1.3,1.3l0.65,1.43h1.43h15.11h4.82h1.43l0.65-1.43l0.65-1.3l0.65-1.43l-0.65-2.08l-0.65-1.3l-0.65-0.78
	l-1.43-0.65h-5.47v-4.17h5.47l2.08-0.65l2.08-1.3l1.3-2.87l0.65-2.73v-5.47L301.01,301.66L301.01,301.66z M285.26,275.61h-8.2
	H285.26z M277.05,271.44h8.2H277.05z M285.26,318.85h-8.2H285.26z M277.05,314.68h8.2H277.05z M301.01,288.63v13.02
	C301.01,301.66,301.01,288.63,301.01,288.63z M296.85,301.66v-13.02V301.66z"/>
<radialGradient id="seat5_1_" cx="285.5813" cy="195.9892" r="28.8145" gradientUnits="userSpaceOnUse">
	<stop  offset="0" style="stop-color:#FFFFFF"/>
	<stop  offset="1" style="stop-color:#AFAFAF"/>
</radialGradient>
<path id="seat5" class="st4" d="M301.01,202.44v5.47l-0.65,2.73v2.87l0.65,2.73l1.43,1.3h2.08l1.95-1.3l1.43-1.43l0.65-2.08
	l0.65-3.39v-3.39l0.78-4.82v-5.6l-0.78-8.86l-0.65-6.9l-2.08-4.17l-0.65-0.65l-1.3-0.65l-2.08,0.65l-1.43,1.43l-0.65,2.73l0.65,4.82
	v5.47h-4.17v-5.47l-0.65-2.73l-1.3-2.73l-2.08-1.43l-2.08-0.65h-5.47v-4.17h5.47l2.08-1.3l0.65-1.43l0.65-2.08l-0.65-1.3l-0.65-1.43
	l-0.65-0.65l-1.43-0.65h-4.82H270.8l-1.43,0.65l-0.65,0.65l-1.3,1.43v1.3v2.08l1.3,1.43l2.08,1.3h6.25v4.17h-2.87l-1.95,0.65
	l-2.86,0.65l-4.04,4.17l-2.73,5.47l-1.43,8.2l1.43,8.99l2.73,6.12l4.04,3.52l4.82,1.3h2.87v4.17h-6.25l-1.43,0.65l-0.65,0.78
	l-1.3,1.3v2.08v1.43l1.3,1.3l0.65,1.43h1.43h15.11h4.82h1.43l0.65-1.43l0.65-1.3l0.65-1.43l-0.65-2.08l-0.65-1.3l-0.65-0.78
	l-1.43-0.65h-5.47v-4.17h5.47l2.08-0.65l2.08-1.3l1.3-2.87l0.65-2.73v-5.47L301.01,202.44L301.01,202.44z M285.26,176.39h-8.2
	H285.26z M277.05,172.22h8.2H277.05z M285.26,219.63h-8.2H285.26z M277.05,215.46h8.2H277.05z M301.01,189.41v13.02
	C301.01,202.44,301.01,189.41,301.01,189.41z M296.85,202.44v-13.02V202.44z"/>
<radialGradient id="seat6_1_" cx="285.5813" cy="96.7678" r="28.8145" gradientUnits="userSpaceOnUse">
	<stop  offset="0" style="stop-color:#FFFFFF"/>
	<stop  offset="1" style="stop-color:#AFAFAF"/>
</radialGradient>
<path id="seat6" class="st5" d="M301.01,103.21v5.47l-0.65,2.73v2.87l0.65,2.73l1.43,1.3h2.08l1.95-1.3l1.43-1.43l0.65-2.08
	l0.65-3.39v-3.39l0.78-4.82v-5.6l-0.78-8.86l-0.65-6.9l-2.08-4.17l-0.65-0.65l-1.3-0.65l-2.08,0.65l-1.43,1.43l-0.65,2.73l0.65,4.82
	v5.47h-4.17v-5.47l-0.65-2.73l-1.3-2.73l-2.08-1.43l-2.08-0.65h-5.47V73h5.47l2.08-1.3l0.65-1.43l0.65-2.08l-0.65-1.3l-0.65-1.43
	l-0.65-0.65l-1.43-0.65h-4.82H270.8l-1.43,0.65l-0.65,0.65l-1.3,1.43v1.3v2.08l1.3,1.43l2.08,1.3h6.25v4.17h-2.87l-1.95,0.65
	l-2.86,0.65l-4.04,4.17l-2.73,5.47l-1.43,8.2l1.43,8.99l2.73,6.12l4.04,3.52l4.82,1.3h2.87v4.17h-6.25l-1.43,0.65l-0.65,0.78
	l-1.3,1.3v2.08v1.43l1.3,1.3l0.65,1.43h1.43h15.11h4.82h1.43l0.65-1.43l0.65-1.3l0.65-1.43l-0.65-2.08l-0.65-1.3l-0.65-0.78
	l-1.43-0.65h-5.47v-4.17h5.47l2.08-0.65l2.08-1.3l1.3-2.87l0.65-2.73v-5.47L301.01,103.21L301.01,103.21z M285.26,77.17h-8.2H285.26
	z M277.05,73h8.2H277.05z M285.26,120.4h-8.2H285.26z M277.05,116.24h8.2H277.05z M301.01,90.19v13.02
	C301.01,103.21,301.01,90.19,301.01,90.19z M296.85,103.21V90.19V103.21z"/>
<radialGradient id="seat7_1_" cx="851.2136" cy="247.6984" r="28.8145" gradientTransform="matrix(6.123234e-17 -1 1 6.123234e-17 267.937 942.4902)" gradientUnits="userSpaceOnUse">
	<stop  offset="0" style="stop-color:#FFFFFF"/>
	<stop  offset="1" style="stop-color:#AFAFAF"/>
</radialGradient>
<path id="seat7" class="st6" d="M522.08,75.84h5.47l2.73,0.65h2.87l2.73-0.65l1.3-1.43v-2.08l-1.3-1.95l-1.43-1.43l-2.08-0.65
	l-3.39-0.65h-3.39l-4.82-0.78h-5.6l-8.86,0.78l-6.9,0.65l-4.17,2.08l-0.65,0.65l-0.65,1.3l0.65,2.08l1.43,1.43l2.73,0.65l4.82-0.65
	h5.47v4.17h-5.47l-2.73,0.65l-2.73,1.3l-1.43,2.08l-0.65,2.08v5.47h-4.17v-5.47l-1.3-2.08l-1.43-0.65l-2.08-0.65l-1.3,0.65
	l-1.43,0.65l-0.65,0.65l-0.65,1.43v4.82v15.11l0.65,1.43l0.65,0.65l1.43,1.3h1.3h2.08l1.43-1.3l1.3-2.08v-6.25h4.17v2.87l0.65,1.95
	l0.65,2.86l4.17,4.04l5.47,2.73l8.2,1.43l8.99-1.43l6.12-2.73l3.52-4.04l1.3-4.82v-2.87h4.17v6.25l0.65,1.43l0.78,0.65l1.3,1.3h2.08
	h1.43l1.3-1.3l1.43-0.65v-1.43V90.95v-4.82V84.7l-1.43-0.65l-1.3-0.65l-1.43-0.65l-2.08,0.65l-1.3,0.65l-0.78,0.65l-0.65,1.43v5.47
	h-4.17v-5.47l-0.65-2.08l-1.3-2.08l-2.87-1.3l-2.73-0.65h-5.47L522.08,75.84L522.08,75.84z M496.04,91.6v8.2V91.6z M491.87,99.81
	v-8.2V99.81z M539.27,91.6v8.2V91.6z M535.11,99.81v-8.2V99.81z M509.06,75.84h13.02C522.08,75.84,509.06,75.84,509.06,75.84z
	 M522.08,80.01h-13.02H522.08z"/>
<radialGradient id="seat8_1_" cx="851.2136" cy="346.9198" r="28.8145" gradientTransform="matrix(6.123234e-17 -1 1 6.123234e-17 267.937 942.4902)" gradientUnits="userSpaceOnUse">
	<stop  offset="0" style="stop-color:#FFFFFF"/>
	<stop  offset="1" style="stop-color:#AFAFAF"/>
</radialGradient>
<path id="seat8" class="st7" d="M621.3,75.84h5.47l2.73,0.65h2.87l2.73-0.65l1.3-1.43v-2.08l-1.3-1.95l-1.43-1.43l-2.08-0.65
	l-3.39-0.65h-3.39L620,66.86h-5.6l-8.86,0.78l-6.9,0.65l-4.17,2.08l-0.65,0.65l-0.65,1.3l0.65,2.08l1.43,1.43l2.73,0.65l4.82-0.65
	h5.47v4.17h-5.47l-2.73,0.65l-2.73,1.3l-1.43,2.08l-0.65,2.08v5.47h-4.17v-5.47l-1.3-2.08l-1.43-0.65l-2.08-0.65l-1.3,0.65
	l-1.43,0.65l-0.65,0.65l-0.65,1.43v4.82v15.11l0.65,1.43l0.65,0.65l1.43,1.3h1.3h2.08l1.43-1.3l1.3-2.08v-6.25h4.17v2.87l0.65,1.95
	l0.65,2.86l4.17,4.04l5.47,2.73l8.2,1.43l8.99-1.43l6.12-2.73l3.52-4.04l1.3-4.82v-2.87h4.17v6.25l0.65,1.43l0.78,0.65l1.3,1.3h2.08
	h1.43l1.3-1.3l1.43-0.65v-1.43V90.95v-4.82V84.7l-1.43-0.65l-1.3-0.65l-1.43-0.65l-2.08,0.65l-1.3,0.65l-0.78,0.65l-0.65,1.43v5.47
	h-4.17v-5.47l-0.65-2.08l-1.3-2.08l-2.87-1.3l-2.73-0.65h-5.47L621.3,75.84L621.3,75.84z M595.26,91.6v8.2V91.6z M591.09,99.81v-8.2
	V99.81z M638.49,91.6v8.2V91.6z M634.33,99.81v-8.2V99.81z M608.28,75.84h13.02C621.3,75.84,608.28,75.84,608.28,75.84z
	 M621.3,80.01h-13.02H621.3z"/>
<radialGradient id="seat9_1_" cx="851.2136" cy="446.1412" r="28.8145" gradientTransform="matrix(6.123234e-17 -1 1 6.123234e-17 267.937 942.4902)" gradientUnits="userSpaceOnUse">
	<stop  offset="0" style="stop-color:#FFFFFF"/>
	<stop  offset="1" style="stop-color:#AFAFAF"/>
</radialGradient>
<path id="seat9" class="st8" d="M720.52,75.84h5.47l2.73,0.65h2.87l2.73-0.65l1.3-1.43v-2.08l-1.3-1.95l-1.43-1.43l-2.08-0.65
	l-3.39-0.65h-3.39l-4.82-0.78h-5.6l-8.86,0.78l-6.9,0.65l-4.17,2.08l-0.65,0.65l-0.65,1.3l0.65,2.08l1.43,1.43l2.73,0.65l4.82-0.65
	h5.47v4.17h-5.47l-2.73,0.65l-2.73,1.3l-1.43,2.08l-0.65,2.08v5.47h-4.17v-5.47l-1.3-2.08l-1.43-0.65l-2.08-0.65l-1.3,0.65
	l-1.43,0.65l-0.65,0.65l-0.65,1.43v4.82v15.11l0.65,1.43l0.65,0.65l1.43,1.3h1.3h2.08l1.43-1.3l1.3-2.08v-6.25h4.17v2.87l0.65,1.95
	l0.65,2.86l4.17,4.04l5.47,2.73l8.2,1.43l8.99-1.43l6.12-2.73l3.52-4.04l1.3-4.82v-2.87h4.17v6.25l0.65,1.43l0.78,0.65l1.3,1.3h2.08
	h1.43l1.3-1.3l1.43-0.65v-1.43V90.95v-4.82V84.7l-1.43-0.65l-1.3-0.65l-1.43-0.65l-2.08,0.65l-1.3,0.65l-0.78,0.65l-0.65,1.43v5.47
	h-4.17v-5.47l-0.65-2.08l-1.3-2.08l-2.87-1.3l-2.73-0.65h-5.47L720.52,75.84L720.52,75.84z M694.48,91.6v8.2V91.6z M690.31,99.81
	v-8.2V99.81z M737.72,91.6v8.2V91.6z M733.55,99.81v-8.2V99.81z M707.5,75.84h13.02C720.52,75.84,707.5,75.84,707.5,75.84z
	 M720.52,80.01H707.5H720.52z"/>
<radialGradient id="seat10_1_" cx="851.2136" cy="543.6984" r="28.8145" gradientTransform="matrix(6.123234e-17 -1 1 6.123234e-17 267.937 942.4902)" gradientUnits="userSpaceOnUse">
	<stop  offset="0" style="stop-color:#FFFFFF"/>
	<stop  offset="1" style="stop-color:#AFAFAF"/>
</radialGradient>
<path id="seat10" class="st9" d="M818.08,75.84h5.47l2.73,0.65h2.87l2.73-0.65l1.3-1.43v-2.08l-1.3-1.95l-1.43-1.43l-2.08-0.65
	l-3.39-0.65h-3.39l-4.82-0.78h-5.6l-8.86,0.78l-6.9,0.65l-4.17,2.08l-0.65,0.65l-0.65,1.3l0.65,2.08l1.43,1.43l2.73,0.65l4.82-0.65
	h5.47v4.17h-5.47l-2.73,0.65l-2.73,1.3l-1.43,2.08l-0.65,2.08v5.47h-4.17v-5.47l-1.3-2.08l-1.43-0.65l-2.08-0.65l-1.3,0.65
	l-1.43,0.65l-0.65,0.65l-0.65,1.43v4.82v15.11l0.65,1.43l0.65,0.65l1.43,1.3h1.3h2.08l1.43-1.3l1.3-2.08v-6.25h4.17v2.87l0.65,1.95
	l0.65,2.86l4.17,4.04l5.47,2.73l8.2,1.43l8.99-1.43l6.12-2.73l3.52-4.04l1.3-4.82v-2.87h4.17v6.25l0.65,1.43l0.78,0.65l1.3,1.3h2.08
	h1.43l1.3-1.3l1.43-0.65v-1.43V90.95v-4.82V84.7l-1.43-0.65l-1.3-0.65l-1.43-0.65l-2.08,0.65l-1.3,0.65l-0.78,0.65l-0.65,1.43v5.47
	h-4.17v-5.47l-0.65-2.08l-1.3-2.08l-2.87-1.3l-2.73-0.65h-5.47L818.08,75.84L818.08,75.84z M792.04,91.6v8.2V91.6z M787.87,99.81
	v-8.2V99.81z M835.27,91.6v8.2V91.6z M831.11,99.81v-8.2V99.81z M805.06,75.84h13.02C818.08,75.84,805.06,75.84,805.06,75.84z
	 M818.08,80.01h-13.02H818.08z"/>
<radialGradient id="seat11_1_" cx="851.2136" cy="642.9198" r="28.8145" gradientTransform="matrix(6.123234e-17 -1 1 6.123234e-17 267.937 942.4902)" gradientUnits="userSpaceOnUse">
	<stop  offset="0" style="stop-color:#FFFFFF"/>
	<stop  offset="1" style="stop-color:#AFAFAF"/>
</radialGradient>
<path id="seat11" class="st10" d="M917.3,75.84h5.47l2.73,0.65h2.87l2.73-0.65l1.3-1.43v-2.08l-1.3-1.95l-1.43-1.43l-2.08-0.65
	l-3.39-0.65h-3.39L916,66.86h-5.6l-8.86,0.78l-6.9,0.65l-4.17,2.08l-0.65,0.65l-0.65,1.3l0.65,2.08l1.43,1.43l2.73,0.65l4.82-0.65
	h5.47v4.17h-5.47l-2.73,0.65l-2.73,1.3l-1.43,2.08l-0.65,2.08v5.47h-4.17v-5.47l-1.3-2.08l-1.43-0.65l-2.08-0.65l-1.3,0.65
	l-1.43,0.65l-0.65,0.65l-0.65,1.43v4.82v15.11l0.65,1.43l0.65,0.65l1.43,1.3h1.3h2.08l1.43-1.3l1.3-2.08v-6.25h4.17v2.87l0.65,1.95
	l0.65,2.86l4.17,4.04l5.47,2.73l8.2,1.43l8.99-1.43l6.12-2.73l3.52-4.04l1.3-4.82v-2.87h4.17v6.25l0.65,1.43l0.78,0.65l1.3,1.3h2.08
	h1.43l1.3-1.3l1.43-0.65v-1.43V90.95v-4.82V84.7l-1.43-0.65l-1.3-0.65l-1.43-0.65l-2.08,0.65l-1.3,0.65l-0.78,0.65l-0.65,1.43v5.47
	h-4.17v-5.47l-0.65-2.08l-1.3-2.08l-2.87-1.3l-2.73-0.65h-5.47L917.3,75.84L917.3,75.84z M891.26,91.6v8.2V91.6z M887.09,99.81v-8.2
	V99.81z M934.49,91.6v8.2V91.6z M930.33,99.81v-8.2V99.81z M904.28,75.84h13.02C917.3,75.84,904.28,75.84,904.28,75.84z
	 M917.3,80.01h-13.02H917.3z"/>
<radialGradient id="seat12_1_" cx="851.2136" cy="742.1412" r="28.8145" gradientTransform="matrix(6.123234e-17 -1 1 6.123234e-17 267.937 942.4902)" gradientUnits="userSpaceOnUse">
	<stop  offset="0" style="stop-color:#FFFFFF"/>
	<stop  offset="1" style="stop-color:#AFAFAF"/>
</radialGradient>
<path id="seat12" class="st11" d="M1016.52,75.84h5.47l2.73,0.65h2.87l2.73-0.65l1.3-1.43v-2.08l-1.3-1.95l-1.43-1.43l-2.08-0.65
	l-3.39-0.65h-3.39l-4.82-0.78h-5.6l-8.86,0.78l-6.9,0.65l-4.17,2.08l-0.65,0.65l-0.65,1.3l0.65,2.08l1.43,1.43l2.73,0.65l4.82-0.65
	h5.47v4.17h-5.47l-2.73,0.65l-2.73,1.3l-1.43,2.08l-0.65,2.08v5.47h-4.17v-5.47l-1.3-2.08l-1.43-0.65l-2.08-0.65l-1.3,0.65
	l-1.43,0.65l-0.65,0.65l-0.65,1.43v4.82v15.11l0.65,1.43l0.65,0.65l1.43,1.3h1.3h2.08l1.43-1.3l1.3-2.08v-6.25h4.17v2.87l0.65,1.95
	l0.65,2.86l4.17,4.04l5.47,2.73l8.2,1.43l8.99-1.43l6.12-2.73l3.52-4.04l1.3-4.82v-2.87h4.17v6.25l0.65,1.43l0.78,0.65l1.3,1.3h2.08
	h1.43l1.3-1.3l1.43-0.65v-1.43V90.95v-4.82V84.7l-1.43-0.65l-1.3-0.65l-1.43-0.65l-2.08,0.65l-1.3,0.65l-0.78,0.65l-0.65,1.43v5.47
	h-4.17v-5.47l-0.65-2.08l-1.3-2.08l-2.87-1.3l-2.73-0.65h-5.47L1016.52,75.84L1016.52,75.84z M990.48,91.6v8.2V91.6z M986.31,99.81
	v-8.2V99.81z M1033.72,91.6v8.2V91.6z M1029.55,99.81v-8.2V99.81z M1003.5,75.84h13.02C1016.52,75.84,1003.5,75.84,1003.5,75.84z
	 M1016.52,80.01h-13.02H1016.52z"/>
<radialGradient id="seat13_1_" cx="476.2138" cy="160.4122" r="28.8145" gradientTransform="matrix(-6.123234e-17 1 -1 -6.123234e-17 1170.4904 -175.9373)" gradientUnits="userSpaceOnUse">
	<stop  offset="0" style="stop-color:#FFFFFF"/>
	<stop  offset="1" style="stop-color:#AFAFAF"/>
</radialGradient>
<path id="seat13" class="st12" d="M1003.63,315.71h-5.47l-2.73-0.65h-2.87l-2.73,0.65l-1.3,1.43v2.08l1.3,1.95l1.43,1.43l2.08,0.65
	l3.39,0.65h3.39l4.82,0.78l5.6,0l8.86-0.78l6.9-0.65l4.17-2.08l0.65-0.65l0.65-1.3l-0.65-2.08l-1.43-1.43l-2.73-0.65l-4.82,0.65
	h-5.47v-4.17h5.47l2.73-0.65l2.73-1.3l1.43-2.08l0.65-2.08v-5.47h4.17v5.47l1.3,2.08l1.43,0.65l2.08,0.65l1.3-0.65l1.43-0.65
	l0.65-0.65l0.65-1.43v-4.82V285.5l-0.65-1.43l-0.65-0.65l-1.43-1.3h-1.3h-2.08l-1.43,1.3l-1.3,2.08v6.25h-4.17v-2.87l-0.65-1.95
	l-0.65-2.86l-4.17-4.04l-5.47-2.73l-8.2-1.43l-8.99,1.43l-6.12,2.73l-3.52,4.04l-1.3,4.82v2.87h-4.17v-6.25l-0.65-1.43l-0.78-0.65
	l-1.3-1.3h-2.08h-1.43l-1.3,1.3l-1.43,0.65v1.43v15.11v4.82v1.43l1.43,0.65l1.3,0.65l1.43,0.65l2.08-0.65l1.3-0.65l0.78-0.65
	l0.65-1.43v-5.47h4.17v5.47l0.65,2.08l1.3,2.08l2.87,1.3l2.73,0.65h5.47L1003.63,315.71L1003.63,315.71z M1029.68,299.95v-8.2
	V299.95z M1033.85,291.75v8.2V291.75z M986.44,299.95v-8.2V299.95z M990.61,291.75v8.2V291.75z M1016.65,315.71h-13.02
	C1003.63,315.71,1016.65,315.71,1016.65,315.71z M1003.63,311.54h13.02H1003.63z"/>
<radialGradient id="seat14_1_" cx="476.2138" cy="259.6335" r="28.8145" gradientTransform="matrix(-6.123234e-17 1 -1 -6.123234e-17 1170.4904 -175.9373)" gradientUnits="userSpaceOnUse">
	<stop  offset="0" style="stop-color:#FFFFFF"/>
	<stop  offset="1" style="stop-color:#AFAFAF"/>
</radialGradient>
<path id="seat14" class="st13" d="M904.41,315.71h-5.47l-2.73-0.65h-2.87l-2.73,0.65l-1.3,1.43v2.08l1.3,1.95l1.43,1.43l2.08,0.65
	l3.39,0.65h3.39l4.82,0.78h5.6l8.86-0.78l6.9-0.65l4.17-2.08l0.65-0.65l0.65-1.3l-0.65-2.08l-1.43-1.43l-2.73-0.65l-4.82,0.65h-5.47
	v-4.17h5.47l2.73-0.65l2.73-1.3l1.43-2.08l0.65-2.08v-5.47h4.17v5.47l1.3,2.08l1.43,0.65l2.08,0.65l1.3-0.65l1.43-0.65l0.65-0.65
	l0.65-1.43v-4.82V285.5l-0.65-1.43l-0.65-0.65l-1.43-1.3h-1.3h-2.08l-1.43,1.3l-1.3,2.08v6.25h-4.17v-2.87l-0.65-1.95l-0.65-2.86
	l-4.17-4.04l-5.47-2.73l-8.2-1.43l-8.99,1.43l-6.12,2.73l-3.52,4.04l-1.3,4.82v2.87h-4.17v-6.25l-0.65-1.43l-0.78-0.65l-1.3-1.3
	h-2.08h-1.43l-1.3,1.3l-1.43,0.65v1.43v15.11v4.82v1.43l1.43,0.65l1.3,0.65l1.43,0.65l2.08-0.65l1.3-0.65l0.78-0.65l0.65-1.43v-5.47
	h4.17v5.47l0.65,2.08l1.3,2.08l2.87,1.3l2.73,0.65h5.47L904.41,315.71L904.41,315.71z M930.46,299.95v-8.2V299.95z M934.62,291.75
	v8.2V291.75z M887.22,299.95v-8.2V299.95z M891.39,291.75v8.2V291.75z M917.43,315.71h-13.02
	C904.41,315.71,917.43,315.71,917.43,315.71z M904.41,311.54h13.02H904.41z"/>
<radialGradient id="seat15_1_" cx="476.2139" cy="358.8549" r="28.8145" gradientTransform="matrix(-6.123234e-17 1 -1 -6.123234e-17 1170.4904 -175.9373)" gradientUnits="userSpaceOnUse">
	<stop  offset="0" style="stop-color:#FFFFFF"/>
	<stop  offset="1" style="stop-color:#AFAFAF"/>
</radialGradient>
<path id="seat15" class="st14" d="M805.19,315.71h-5.47l-2.73-0.65h-2.87l-2.73,0.65l-1.3,1.43v2.08l1.3,1.95l1.43,1.43l2.08,0.65
	l3.39,0.65h3.39l4.82,0.78h5.6l8.86-0.78l6.9-0.65l4.17-2.08l0.65-0.65l0.65-1.3l-0.65-2.08l-1.43-1.43l-2.73-0.65l-4.82,0.65h-5.47
	v-4.17h5.47l2.73-0.65l2.73-1.3l1.43-2.08l0.65-2.08v-5.47h4.17v5.47l1.3,2.08l1.43,0.65l2.08,0.65l1.3-0.65l1.43-0.65l0.65-0.65
	l0.65-1.43v-4.82V285.5l-0.65-1.43l-0.65-0.65l-1.43-1.3h-1.3h-2.08l-1.43,1.3l-1.3,2.08v6.25h-4.17v-2.87l-0.65-1.95l-0.65-2.86
	l-4.17-4.04l-5.47-2.73l-8.2-1.43l-8.99,1.43l-6.12,2.73l-3.52,4.04l-1.3,4.82v2.87H788v-6.25l-0.65-1.43l-0.78-0.65l-1.3-1.3h-2.08
	h-1.43l-1.3,1.3l-1.43,0.65v1.43l0,15.11v4.82v1.43l1.43,0.65l1.3,0.65l1.43,0.65l2.08-0.65l1.3-0.65l0.78-0.65l0.65-1.43v-5.47
	h4.17v5.47l0.65,2.08l1.3,2.08l2.87,1.3l2.73,0.65h5.47L805.19,315.71L805.19,315.71z M831.24,299.95v-8.2V299.95z M835.4,291.75
	v8.2V291.75z M788,299.95v-8.2V299.95z M792.17,291.75v8.2V291.75z M818.21,315.71h-13.02
	C805.19,315.71,818.21,315.71,818.21,315.71z M805.19,311.54h13.02H805.19z"/>
<radialGradient id="seat16_1_" cx="476.2139" cy="456.4122" r="28.8145" gradientTransform="matrix(-6.123234e-17 1 -1 -6.123234e-17 1170.4904 -175.9373)" gradientUnits="userSpaceOnUse">
	<stop  offset="0" style="stop-color:#FFFFFF"/>
	<stop  offset="1" style="stop-color:#AFAFAF"/>
</radialGradient>
<path id="seat16" class="st15" d="M707.63,315.71h-5.47l-2.73-0.65h-2.87l-2.73,0.65l-1.3,1.43v2.08l1.3,1.95l1.43,1.43l2.08,0.65
	l3.39,0.65h3.39l4.82,0.78h5.6l8.86-0.78l6.9-0.65l4.17-2.08l0.65-0.65l0.65-1.3l-0.65-2.08l-1.43-1.43l-2.73-0.65l-4.82,0.65h-5.47
	v-4.17h5.47l2.73-0.65l2.73-1.3l1.43-2.08l0.65-2.08v-5.47h4.17v5.47l1.3,2.08l1.43,0.65l2.08,0.65l1.3-0.65l1.43-0.65l0.65-0.65
	l0.65-1.43v-4.82V285.5l-0.65-1.43l-0.65-0.65l-1.43-1.3h-1.3h-2.08l-1.43,1.3l-1.3,2.08v6.25h-4.17v-2.87l-0.65-1.95l-0.65-2.86
	l-4.17-4.04l-5.47-2.73l-8.2-1.43l-8.99,1.43l-6.12,2.73l-3.52,4.04l-1.3,4.82v2.87h-4.17v-6.25l-0.65-1.43l-0.78-0.65l-1.3-1.3
	h-2.08h-1.43l-1.3,1.3l-1.43,0.65v1.43v15.11v4.82v1.43l1.43,0.65l1.3,0.65l1.43,0.65l2.08-0.65l1.3-0.65l0.78-0.65l0.65-1.43v-5.47
	h4.17v5.47l0.65,2.08l1.3,2.08l2.87,1.3l2.73,0.65h5.47L707.63,315.71L707.63,315.71z M733.68,299.95v-8.2V299.95z M737.85,291.75
	v8.2V291.75z M690.44,299.95v-8.2V299.95z M694.61,291.75v8.2V291.75z M720.65,315.71h-13.02
	C707.63,315.71,720.65,315.71,720.65,315.71z M707.63,311.54h13.02H707.63z"/>
<radialGradient id="seat17_1_" cx="476.2139" cy="555.6335" r="28.8145" gradientTransform="matrix(-6.123234e-17 1 -1 -6.123234e-17 1170.4904 -175.9373)" gradientUnits="userSpaceOnUse">
	<stop  offset="0" style="stop-color:#FFFFFF"/>
	<stop  offset="1" style="stop-color:#AFAFAF"/>
</radialGradient>
<path id="seat17" class="st16" d="M608.41,315.71h-5.47l-2.73-0.65h-2.87l-2.73,0.65l-1.3,1.43v2.08l1.3,1.95l1.43,1.43l2.08,0.65
	l3.39,0.65h3.39l4.82,0.78h5.6l8.86-0.78l6.9-0.65l4.17-2.08l0.65-0.65l0.65-1.3l-0.65-2.08l-1.43-1.43l-2.73-0.65l-4.82,0.65h-5.47
	v-4.17h5.47l2.73-0.65l2.73-1.3l1.43-2.08l0.65-2.08v-5.47h4.17v5.47l1.3,2.08l1.43,0.65l2.08,0.65l1.3-0.65l1.43-0.65l0.65-0.65
	l0.65-1.43v-4.82V285.5l-0.65-1.43l-0.65-0.65l-1.43-1.3h-1.3h-2.08l-1.43,1.3l-1.3,2.08v6.25h-4.17v-2.87l-0.65-1.95l-0.65-2.86
	l-4.17-4.04l-5.47-2.73l-8.2-1.43l-8.99,1.43l-6.12,2.73l-3.52,4.04l-1.3,4.82v2.87h-4.17v-6.25l-0.65-1.43l-0.78-0.65l-1.3-1.3
	h-2.08h-1.43l-1.3,1.3l-1.43,0.65v1.43v15.11v4.82v1.43l1.43,0.65l1.3,0.65l1.43,0.65l2.08-0.65l1.3-0.65l0.78-0.65l0.65-1.43v-5.47
	h4.17v5.47l0.65,2.08l1.3,2.08l2.87,1.3l2.73,0.65h5.47L608.41,315.71L608.41,315.71z M634.46,299.95v-8.2V299.95z M638.62,291.75
	v8.2V291.75z M591.22,299.95v-8.2V299.95z M595.39,291.75v8.2V291.75z M621.43,315.71h-13.02
	C608.41,315.71,621.43,315.71,621.43,315.71z M608.41,311.54h13.02H608.41z"/>
<radialGradient id="seat18_1_" cx="476.214" cy="654.8549" r="28.8145" gradientTransform="matrix(-6.123234e-17 1 -1 -6.123234e-17 1170.4904 -175.9373)" gradientUnits="userSpaceOnUse">
	<stop  offset="0" style="stop-color:#FFFFFF"/>
	<stop  offset="1" style="stop-color:#AFAFAF"/>
</radialGradient>
<path id="seat18" class="st17" d="M509.19,315.71h-5.47l-2.73-0.65h-2.87l-2.73,0.65l-1.3,1.43v2.08l1.3,1.95l1.43,1.43l2.08,0.65
	l3.39,0.65h3.39l4.82,0.78h5.6l8.86-0.78l6.9-0.65l4.17-2.08l0.65-0.65l0.65-1.3l-0.65-2.08l-1.43-1.43l-2.73-0.65l-4.82,0.65h-5.47
	v-4.17h5.47l2.73-0.65l2.73-1.3l1.43-2.08l0.65-2.08v-5.47h4.17v5.47l1.3,2.08l1.43,0.65l2.08,0.65l1.3-0.65l1.43-0.65l0.65-0.65
	l0.65-1.43v-4.82V285.5l-0.65-1.43l-0.65-0.65l-1.43-1.3h-1.3h-2.08l-1.43,1.3l-1.3,2.08v6.25h-4.17v-2.87l-0.65-1.95l-0.65-2.86
	l-4.17-4.04l-5.47-2.73l-8.2-1.43l-8.99,1.43l-6.12,2.73l-3.52,4.04l-1.3,4.82v2.87H492v-6.25l-0.65-1.43l-0.78-0.65l-1.3-1.3h-2.08
	h-1.43l-1.3,1.3l-1.43,0.65v1.43v15.11v4.82v1.43l1.43,0.65l1.3,0.65l1.43,0.65l2.08-0.65l1.3-0.65l0.78-0.65l0.65-1.43l0-5.47
	l4.17,0v5.47l0.65,2.08l1.3,2.08l2.87,1.3l2.73,0.65h5.47L509.19,315.71L509.19,315.71z M535.24,299.95v-8.2V299.95z M539.4,291.75
	v8.2V291.75z M492,299.95v-8.2V299.95z M496.17,291.75v8.2V291.75z M522.21,315.71h-13.02
	C509.19,315.71,522.21,315.71,522.21,315.71z M509.19,311.54h13.02H509.19z"/>
<radialGradient id="seat19_1_" cx="388.305" cy="445.206" r="28.8145" gradientTransform="matrix(-0.7071 -0.7071 0.7071 -0.7071 228.2761 1045.9347)" gradientUnits="userSpaceOnUse">
	<stop  offset="0" style="stop-color:#FFFFFF"/>
	<stop  offset="1" style="stop-color:#AFAFAF"/>
</radialGradient>
<path id="seat19" class="st18" d="M262.16,441.08l3.87-3.87l2.39-1.47l2.03-2.03l1.47-2.39l-0.09-1.93l-1.47-1.47l-2.3-0.46h-2.03
	l-1.93,1.01l-2.86,1.93l-2.39,2.39l-3.96,2.85l-3.96,3.96l-5.71,6.81l-4.42,5.34l-1.47,4.42v0.92l0.46,1.38l1.93,1.01h2.03
	l2.39-1.47l2.95-3.87l3.87-3.87l2.95,2.95l-3.87,3.87l-1.47,2.39l-1.01,2.85l0.46,2.49l1.01,1.93l3.87,3.87l-2.95,2.95l-3.87-3.87
	l-2.39-0.55l-1.47,0.55l-1.93,1.01l-0.46,1.38l-0.55,1.47v0.92l0.55,1.47l3.41,3.41l10.68,10.68l1.47,0.55l0.92,0l1.93-0.09
	l0.92-0.92l1.47-1.47l0.09-1.93l-0.55-2.39l-4.42-4.42l2.95-2.95l2.03,2.03l1.84,0.92l2.49,1.57l5.8-0.09l5.8-1.93l6.81-4.79
	l5.34-7.37l2.39-6.26l-0.37-5.34l-2.49-4.33l-2.03-2.03l2.95-2.95l4.42,4.42l1.47,0.55l1.01-0.09h1.84l1.47-1.47l1.01-1.01v-1.84
	l0.55-1.47l-1.01-1.01l-10.68-10.68l-3.41-3.41l-1.01-1.01l-1.47,0.55l-1.38,0.46l-1.47,0.55l-1.01,1.93l-0.46,1.38l-0.09,1.01
	l0.55,1.47l3.87,3.87l-2.95,2.95l-3.87-3.87l-1.93-1.01l-2.39-0.55l-2.95,1.11l-2.39,1.47l-3.87,3.87L262.16,441.08L262.16,441.08z
	 M254.88,470.64l5.8,5.8L254.88,470.64z M257.74,479.39l-5.8-5.8L257.74,479.39z M285.46,440.07l5.8,5.8L285.46,440.07z
	 M288.31,448.82l-5.8-5.8L288.31,448.82z M252.95,450.29l9.21-9.21C262.16,441.08,252.95,450.29,252.95,450.29z M265.1,444.03
	l-9.21,9.21L265.1,444.03z"/>
<radialGradient id="seat20_1_" cx="914.2852" cy="557.3688" r="28.8145" gradientTransform="matrix(-0.7071 0.7071 -0.7071 -0.7071 1309.1276 389.4374)" gradientUnits="userSpaceOnUse">
	<stop  offset="0" style="stop-color:#FFFFFF"/>
	<stop  offset="1" style="stop-color:#AFAFAF"/>
</radialGradient>
<path id="seat20" class="st19" d="M253.04,648.17l-3.87-3.87l-1.47-2.39l-2.03-2.03l-2.39-1.47l-1.93,0.09l-1.47,1.47l-0.46,2.3
	v2.03l1.01,1.93l1.93,2.86l2.39,2.39l2.85,3.96l3.96,3.96l6.81,5.71l5.34,4.42l4.42,1.47h0.92l1.38-0.46l1.01-1.93v-2.03l-1.47-2.39
	l-3.87-2.95l-3.87-3.87l2.95-2.95l3.87,3.87l2.39,1.47l2.85,1.01l2.49-0.46l1.93-1.01l3.87-3.87l2.95,2.95l-3.87,3.87l-0.55,2.39
	l0.55,1.47l1.01,1.93l1.38,0.46l1.47,0.55h0.92l1.47-0.55l3.41-3.41l10.68-10.68l0.55-1.47l0-0.92l-0.09-1.93l-0.92-0.92l-1.47-1.47
	l-1.93-0.09l-2.39,0.55l-4.42,4.42l-2.95-2.95l2.03-2.03l0.92-1.84l1.57-2.49l-0.09-5.8l-1.93-5.8l-4.79-6.81l-7.37-5.34l-6.26-2.39
	l-5.34,0.37l-4.33,2.49l-2.03,2.03l-2.95-2.95l4.42-4.42l0.55-1.47l-0.09-1.01v-1.84l-1.47-1.47l-1.01-1.01h-1.84l-1.47-0.55
	l-1.01,1.01l-10.68,10.68l-3.41,3.41l-1.01,1.01l0.55,1.47l0.46,1.38l0.55,1.47l1.93,1.01l1.38,0.46l1.01,0.09l1.47-0.55l3.87-3.87
	l2.95,2.95l-3.87,3.87l-1.01,1.93l-0.55,2.39l1.11,2.95l1.47,2.39l3.87,3.87L253.04,648.17L253.04,648.17z M282.6,655.44l5.8-5.8
	L282.6,655.44z M291.35,652.59l-5.8,5.8L291.35,652.59z M252.03,624.87l5.8-5.8L252.03,624.87z M260.78,622.02l-5.8,5.8
	L260.78,622.02z M262.25,657.38l-9.21-9.21C253.04,648.17,262.25,657.38,262.25,657.38z M255.99,645.22l9.21,9.21L255.99,645.22z"/>
<radialGradient id="seat21_1_" cx="1018.1223" cy="661.3472" r="28.8145" gradientTransform="matrix(0.7071 0.7071 -0.7071 0.7071 201.4951 -545.7489)" gradientUnits="userSpaceOnUse">
	<stop  offset="0" style="stop-color:#FFFFFF"/>
	<stop  offset="1" style="stop-color:#AFAFAF"/>
</radialGradient>
<path id="seat21" class="st20" d="M460.13,657.29l-3.87,3.87l-2.39,1.47l-2.03,2.03l-1.47,2.39l0.09,1.93l1.47,1.47l2.3,0.46h2.03
	l1.93-1.01l2.86-1.93l2.39-2.39l3.96-2.85l3.96-3.96l5.71-6.81l4.42-5.34l1.47-4.42v-0.92l-0.46-1.38l-1.93-1.01h-2.03l-2.39,1.47
	l-2.95,3.87l-3.87,3.87l-2.95-2.95l3.87-3.87l1.47-2.39l1.01-2.85l-0.46-2.49l-1.01-1.93l-3.87-3.87l2.95-2.95l3.87,3.87l2.39,0.55
	l1.47-0.55l1.93-1.01l0.46-1.38l0.55-1.47v-0.92l-0.55-1.47l-3.41-3.41l-10.68-10.68l-1.47-0.55l-0.92,0l-1.93,0.09l-0.92,0.92
	l-1.47,1.47l-0.09,1.93l0.55,2.39l4.42,4.42l-2.95,2.95l-2.03-2.03l-1.84-0.92l-2.49-1.57l-5.8,0.09l-5.8,1.93l-6.81,4.79
	l-5.34,7.37l-2.39,6.26l0.37,5.34l2.49,4.33l2.03,2.03l-2.95,2.95l-4.42-4.42l-1.47-0.55l-1.01,0.09h-1.84l-1.47,1.47l-1.01,1.01
	v1.84l-0.55,1.47l1.01,1.01l10.68,10.68l3.41,3.41l1.01,1.01l1.47-0.55l1.38-0.46l1.47-0.55l1.01-1.93l0.46-1.38l0.09-1.01
	l-0.55-1.47l-3.87-3.87l2.95-2.95l3.87,3.87l1.93,1.01l2.39,0.55l2.95-1.11l2.39-1.47l3.87-3.87L460.13,657.29L460.13,657.29z
	 M467.4,627.73l-5.8-5.8L467.4,627.73z M464.55,618.98l5.8,5.8L464.55,618.98z M436.83,658.3l-5.8-5.8L436.83,658.3z M433.97,649.55
	l5.8,5.8L433.97,649.55z M469.34,648.08l-9.21,9.21C460.13,657.29,469.34,648.08,469.34,648.08z M457.18,654.34l9.21-9.21
	L457.18,654.34z"/>
<radialGradient id="seat22_1_" cx="492.1421" cy="549.1844" r="28.8145" gradientTransform="matrix(0.7071 -0.7071 0.7071 0.7071 -282.5559 416.2184)" gradientUnits="userSpaceOnUse">
	<stop  offset="0" style="stop-color:#FFFFFF"/>
	<stop  offset="1" style="stop-color:#AFAFAF"/>
</radialGradient>
<path id="seat22" class="st21" d="M469.24,450.2l3.87,3.87l1.47,2.39l2.03,2.03l2.39,1.47l1.93-0.09l1.47-1.47l0.46-2.3v-2.03
	l-1.01-1.93l-1.93-2.86l-2.39-2.39l-2.85-3.96l-3.96-3.96l-6.81-5.71l-5.34-4.42l-4.42-1.47h-0.92l-1.38,0.46l-1.01,1.93v2.03
	l1.47,2.39l3.87,2.95l3.87,3.87l-2.95,2.95l-3.87-3.87l-2.39-1.47l-2.85-1.01l-2.49,0.46l-1.93,1.01l-3.87,3.87l-2.95-2.95
	l3.87-3.87l0.55-2.39l-0.55-1.47l-1.01-1.93l-1.38-0.46l-1.47-0.55h-0.92l-1.47,0.55l-3.41,3.41l-10.68,10.68l-0.55,1.47l0,0.92
	l0.09,1.93l0.92,0.92l1.47,1.47l1.93,0.09l2.39-0.55l4.42-4.42l2.95,2.95l-2.03,2.03l-0.92,1.84l-1.57,2.49l0.09,5.8l1.93,5.8
	l4.79,6.81l7.37,5.34l6.26,2.39l5.34-0.37l4.33-2.49l2.03-2.03l2.95,2.95l-4.42,4.42l-0.55,1.47l0.09,1.01v1.84l1.47,1.47l1.01,1.01
	h1.84l1.47,0.55l1.01-1.01l10.68-10.68l3.41-3.41l1.01-1.01l-0.55-1.47l-0.46-1.38l-0.55-1.47l-1.93-1.01l-1.38-0.46l-1.01-0.09
	l-1.47,0.55l-3.87,3.87l-2.95-2.95l3.87-3.87l1.01-1.93l0.55-2.39l-1.11-2.95l-1.47-2.39l-3.87-3.87L469.24,450.2L469.24,450.2z
	 M439.68,442.92l-5.8,5.8L439.68,442.92z M430.94,445.78l5.8-5.8L430.94,445.78z M470.26,473.5l-5.8,5.8L470.26,473.5z
	 M461.51,476.35l5.8-5.8L461.51,476.35z M460.04,440.99l9.21,9.21C469.24,450.2,460.04,440.99,460.04,440.99z M466.3,453.15
	l-9.21-9.21L466.3,453.15z"/>
<radialGradient id="seat23_1_" cx="145.7673" cy="687.7436" r="28.8145" gradientTransform="matrix(-0.7071 -0.7071 0.7071 -0.7071 228.2761 1045.9347)" gradientUnits="userSpaceOnUse">
	<stop  offset="0" style="stop-color:#FFFFFF"/>
	<stop  offset="1" style="stop-color:#AFAFAF"/>
</radialGradient>
<path id="seat23" class="st22" d="M605.16,441.08l3.87-3.87l2.39-1.47l2.03-2.03l1.47-2.39l-0.09-1.93l-1.47-1.47l-2.3-0.46h-2.03
	l-1.93,1.01l-2.86,1.93l-2.39,2.39l-3.96,2.85l-3.96,3.96l-5.71,6.81l-4.42,5.34l-1.47,4.42v0.92l0.46,1.38l1.93,1.01h2.03
	l2.39-1.47l2.95-3.87l3.87-3.87l2.95,2.95l-3.87,3.87l-1.47,2.39l-1.01,2.85l0.46,2.49l1.01,1.93l3.87,3.87l-2.95,2.95l-3.87-3.87
	l-2.39-0.55l-1.47,0.55l-1.93,1.01l-0.46,1.38l-0.55,1.47v0.92l0.55,1.47l3.41,3.41l10.68,10.68l1.47,0.55l0.92,0l1.93-0.09
	l0.92-0.92l1.47-1.47l0.09-1.93l-0.55-2.39l-4.42-4.42l2.95-2.95l2.03,2.03l1.84,0.92l2.49,1.57l5.8-0.09l5.8-1.93l6.81-4.79
	l5.34-7.37l2.39-6.26l-0.37-5.34l-2.49-4.33l-2.03-2.03l2.95-2.95l4.42,4.42l1.47,0.55l1.01-0.09h1.84l1.47-1.47l1.01-1.01v-1.84
	l0.55-1.47l-1.01-1.01l-10.68-10.68l-3.41-3.41l-1.01-1.01l-1.47,0.55l-1.38,0.46l-1.47,0.55l-1.01,1.93l-0.46,1.38l-0.09,1.01
	l0.55,1.47l3.87,3.87l-2.95,2.95l-3.87-3.87l-1.93-1.01l-2.39-0.55l-2.95,1.11l-2.39,1.47l-3.87,3.87L605.16,441.08L605.16,441.08z
	 M597.88,470.64l5.8,5.8L597.88,470.64z M600.74,479.39l-5.8-5.8L600.74,479.39z M628.46,440.07l5.8,5.8L628.46,440.07z
	 M631.31,448.82l-5.8-5.8L631.31,448.82z M595.95,450.29l9.21-9.21C605.16,441.08,595.95,450.29,595.95,450.29z M608.1,444.03
	l-9.21,9.21L608.1,444.03z"/>
<radialGradient id="seat24_1_" cx="671.7475" cy="314.8312" r="28.8145" gradientTransform="matrix(-0.7071 0.7071 -0.7071 -0.7071 1309.1276 389.4374)" gradientUnits="userSpaceOnUse">
	<stop  offset="0" style="stop-color:#FFFFFF"/>
	<stop  offset="1" style="stop-color:#AFAFAF"/>
</radialGradient>
<path id="seat24" class="st23" d="M596.04,648.17l-3.87-3.87l-1.47-2.39l-2.03-2.03l-2.39-1.47l-1.93,0.09l-1.47,1.47l-0.46,2.3
	v2.03l1.01,1.93l1.93,2.86l2.39,2.39l2.85,3.96l3.96,3.96l6.81,5.71l5.34,4.42l4.42,1.47h0.92l1.38-0.46l1.01-1.93v-2.03l-1.47-2.39
	l-3.87-2.95l-3.87-3.87l2.95-2.95l3.87,3.87l2.39,1.47l2.85,1.01l2.49-0.46l1.93-1.01l3.87-3.87l2.95,2.95l-3.87,3.87l-0.55,2.39
	l0.55,1.47l1.01,1.93l1.38,0.46l1.47,0.55h0.92l1.47-0.55l3.41-3.41l10.68-10.68l0.55-1.47l0-0.92l-0.09-1.93l-0.92-0.92l-1.47-1.47
	l-1.93-0.09l-2.39,0.55l-4.42,4.42l-2.95-2.95l2.03-2.03l0.92-1.84l1.57-2.49l-0.09-5.8l-1.93-5.8l-4.79-6.81l-7.37-5.34l-6.26-2.39
	l-5.34,0.37l-4.33,2.49l-2.03,2.03l-2.95-2.95l4.42-4.42l0.55-1.47l-0.09-1.01v-1.84l-1.47-1.47l-1.01-1.01h-1.84l-1.47-0.55
	l-1.01,1.01l-10.68,10.68l-3.41,3.41l-1.01,1.01l0.55,1.47l0.46,1.38l0.55,1.47l1.93,1.01l1.38,0.46l1.01,0.09l1.47-0.55l3.87-3.87
	l2.95,2.95l-3.87,3.87l-1.01,1.93l-0.55,2.39l1.11,2.95l1.47,2.39l3.87,3.87L596.04,648.17L596.04,648.17z M625.6,655.44l5.8-5.8
	L625.6,655.44z M634.35,652.59l-5.8,5.8L634.35,652.59z M595.03,624.87l5.8-5.8L595.03,624.87z M603.78,622.02l-5.8,5.8
	L603.78,622.02z M605.25,657.38l-9.21-9.21C596.04,648.17,605.25,657.38,605.25,657.38z M598.99,645.22l9.21,9.21L598.99,645.22z"/>
<radialGradient id="seat25_1_" cx="1260.6599" cy="418.8096" r="28.8145" gradientTransform="matrix(0.7071 0.7071 -0.7071 0.7071 201.4951 -545.7489)" gradientUnits="userSpaceOnUse">
	<stop  offset="0" style="stop-color:#FFFFFF"/>
	<stop  offset="1" style="stop-color:#AFAFAF"/>
</radialGradient>
<path id="seat25" class="st24" d="M803.13,657.29l-3.87,3.87l-2.39,1.47l-2.03,2.03l-1.47,2.39l0.09,1.93l1.47,1.47l2.3,0.46h2.03
	l1.93-1.01l2.86-1.93l2.39-2.39l3.96-2.85l3.96-3.96l5.71-6.81l4.42-5.34l1.47-4.42v-0.92l-0.46-1.38l-1.93-1.01h-2.03l-2.39,1.47
	l-2.95,3.87l-3.87,3.87l-2.95-2.95l3.87-3.87l1.47-2.39l1.01-2.85l-0.46-2.49l-1.01-1.93l-3.87-3.87l2.95-2.95l3.87,3.87l2.39,0.55
	l1.47-0.55l1.93-1.01l0.46-1.38l0.55-1.47v-0.92l-0.55-1.47l-3.41-3.41l-10.68-10.68l-1.47-0.55l-0.92,0l-1.93,0.09l-0.92,0.92
	l-1.47,1.47l-0.09,1.93l0.55,2.39l4.42,4.42l-2.95,2.95l-2.03-2.03l-1.84-0.92l-2.49-1.57l-5.8,0.09l-5.8,1.93l-6.81,4.79
	l-5.34,7.37l-2.39,6.26l0.37,5.34l2.49,4.33l2.03,2.03l-2.95,2.95l-4.42-4.42l-1.47-0.55l-1.01,0.09h-1.84l-1.47,1.47l-1.01,1.01
	v1.84l-0.55,1.47l1.01,1.01l10.68,10.68l3.41,3.41l1.01,1.01l1.47-0.55l1.38-0.46l1.47-0.55l1.01-1.93l0.46-1.38l0.09-1.01
	l-0.55-1.47l-3.87-3.87l2.95-2.95l3.87,3.87l1.93,1.01l2.39,0.55l2.95-1.11l2.39-1.47l3.87-3.87L803.13,657.29L803.13,657.29z
	 M810.4,627.73l-5.8-5.8L810.4,627.73z M807.55,618.98l5.8,5.8L807.55,618.98z M779.83,658.3l-5.8-5.8L779.83,658.3z M776.97,649.55
	l5.8,5.8L776.97,649.55z M812.34,648.08l-9.21,9.21C803.13,657.29,812.34,648.08,812.34,648.08z M800.18,654.34l9.21-9.21
	L800.18,654.34z"/>
<radialGradient id="seat26_1_" cx="734.6797" cy="791.722" r="28.8145" gradientTransform="matrix(0.7071 -0.7071 0.7071 0.7071 -282.5559 416.2184)" gradientUnits="userSpaceOnUse">
	<stop  offset="0" style="stop-color:#FFFFFF"/>
	<stop  offset="1" style="stop-color:#AFAFAF"/>
</radialGradient>
<path id="seat26" class="st25" d="M812.24,450.2l3.87,3.87l1.47,2.39l2.03,2.03l2.39,1.47l1.93-0.09l1.47-1.47l0.46-2.3v-2.03
	l-1.01-1.93l-1.93-2.86l-2.39-2.39l-2.85-3.96l-3.96-3.96l-6.81-5.71l-5.34-4.42l-4.42-1.47h-0.92l-1.38,0.46l-1.01,1.93v2.03
	l1.47,2.39l3.87,2.95l3.87,3.87l-2.95,2.95l-3.87-3.87l-2.39-1.47l-2.85-1.01l-2.49,0.46l-1.93,1.01l-3.87,3.87l-2.95-2.95
	l3.87-3.87l0.55-2.39l-0.55-1.47l-1.01-1.93l-1.38-0.46l-1.47-0.55h-0.92l-1.47,0.55l-3.41,3.41l-10.68,10.68l-0.55,1.47l0,0.92
	l0.09,1.93l0.92,0.92l1.47,1.47l1.93,0.09l2.39-0.55l4.42-4.42l2.95,2.95l-2.03,2.03l-0.92,1.84l-1.57,2.49l0.09,5.8l1.93,5.8
	l4.79,6.81l7.37,5.34l6.26,2.39l5.34-0.37l4.33-2.49l2.03-2.03l2.95,2.95l-4.42,4.42l-0.55,1.47l0.09,1.01v1.84l1.47,1.47l1.01,1.01
	h1.84l1.47,0.55l1.01-1.01l10.68-10.68l3.41-3.41l1.01-1.01l-0.55-1.47l-0.46-1.38l-0.55-1.47l-1.93-1.01l-1.38-0.46l-1.01-0.09
	l-1.47,0.55l-3.87,3.87l-2.95-2.95l3.87-3.87l1.01-1.93l0.55-2.39l-1.11-2.95l-1.47-2.39l-3.87-3.87L812.24,450.2L812.24,450.2z
	 M782.68,442.92l-5.8,5.8L782.68,442.92z M773.94,445.78l5.8-5.8L773.94,445.78z M813.26,473.5l-5.8,5.8L813.26,473.5z
	 M804.51,476.35l5.8-5.8L804.51,476.35z M803.04,440.99l9.21,9.21C812.24,450.2,803.04,440.99,803.04,440.99z M809.3,453.15
	l-9.21-9.21L809.3,453.15z"/>
<radialGradient id="seat27_1_" cx="-84.0424" cy="917.5533" r="28.8145" gradientTransform="matrix(-0.7071 -0.7071 0.7071 -0.7071 228.2761 1045.9347)" gradientUnits="userSpaceOnUse">
	<stop  offset="0" style="stop-color:#FFFFFF"/>
	<stop  offset="1" style="stop-color:#AFAFAF"/>
</radialGradient>
<path id="seat27" class="st26" d="M930.16,441.08l3.87-3.87l2.39-1.47l2.03-2.03l1.47-2.39l-0.09-1.93l-1.47-1.47l-2.3-0.46h-2.03
	l-1.93,1.01l-2.86,1.93l-2.39,2.39l-3.96,2.85l-3.96,3.96l-5.71,6.81l-4.42,5.34l-1.47,4.42v0.92l0.46,1.38l1.93,1.01h2.03
	l2.39-1.47l2.95-3.87l3.87-3.87l2.95,2.95l-3.87,3.87l-1.47,2.39l-1.01,2.85l0.46,2.49l1.01,1.93l3.87,3.87l-2.95,2.95l-3.87-3.87
	l-2.39-0.55l-1.47,0.55l-1.93,1.01l-0.46,1.38l-0.55,1.47v0.92l0.55,1.47l3.41,3.41l10.68,10.68l1.47,0.55l0.92,0l1.93-0.09
	l0.92-0.92l1.47-1.47l0.09-1.93l-0.55-2.39l-4.42-4.42l2.95-2.95l2.03,2.03l1.84,0.92l2.49,1.57l5.8-0.09l5.8-1.93l6.81-4.79
	l5.34-7.37l2.39-6.26l-0.37-5.34l-2.49-4.33l-2.03-2.03l2.95-2.95l4.42,4.42l1.47,0.55l1.01-0.09h1.84l1.47-1.47l1.01-1.01v-1.84
	l0.55-1.47l-1.01-1.01l-10.68-10.68l-3.41-3.41l-1.01-1.01l-1.47,0.55l-1.38,0.46l-1.47,0.55l-1.01,1.93l-0.46,1.38l-0.09,1.01
	l0.55,1.47l3.87,3.87l-2.95,2.95l-3.87-3.87l-1.93-1.01l-2.39-0.55l-2.95,1.11l-2.39,1.47l-3.87,3.87L930.16,441.08L930.16,441.08z
	 M922.88,470.64l5.8,5.8L922.88,470.64z M925.74,479.39l-5.8-5.8L925.74,479.39z M953.46,440.07l5.8,5.8L953.46,440.07z
	 M956.31,448.82l-5.8-5.8L956.31,448.82z M920.95,450.29l9.21-9.21C930.16,441.08,920.95,450.29,920.95,450.29z M933.1,444.03
	l-9.21,9.21L933.1,444.03z"/>
<radialGradient id="seat28_1_" cx="441.9378" cy="85.0215" r="28.8145" gradientTransform="matrix(-0.7071 0.7071 -0.7071 -0.7071 1309.1276 389.4374)" gradientUnits="userSpaceOnUse">
	<stop  offset="0" style="stop-color:#FFFFFF"/>
	<stop  offset="1" style="stop-color:#AFAFAF"/>
</radialGradient>
<path id="seat28" class="st27" d="M921.04,648.17l-3.87-3.87l-1.47-2.39l-2.03-2.03l-2.39-1.47l-1.93,0.09l-1.47,1.47l-0.46,2.3
	v2.03l1.01,1.93l1.93,2.86l2.39,2.39l2.85,3.96l3.96,3.96l6.81,5.71l5.34,4.42l4.42,1.47h0.92l1.38-0.46l1.01-1.93v-2.03l-1.47-2.39
	l-3.87-2.95l-3.87-3.87l2.95-2.95l3.87,3.87l2.39,1.47l2.85,1.01l2.49-0.46l1.93-1.01l3.87-3.87l2.95,2.95l-3.87,3.87l-0.55,2.39
	l0.55,1.47l1.01,1.93l1.38,0.46l1.47,0.55h0.92l1.47-0.55l3.41-3.41l10.68-10.68l0.55-1.47l0-0.92l-0.09-1.93l-0.92-0.92l-1.47-1.47
	l-1.93-0.09l-2.39,0.55l-4.42,4.42l-2.95-2.95l2.03-2.03l0.92-1.84l1.57-2.49l-0.09-5.8l-1.93-5.8l-4.79-6.81l-7.37-5.34l-6.26-2.39
	l-5.34,0.37l-4.33,2.49l-2.03,2.03l-2.95-2.95l4.42-4.42l0.55-1.47l-0.09-1.01v-1.84l-1.47-1.47l-1.01-1.01h-1.84l-1.47-0.55
	l-1.01,1.01l-10.68,10.68l-3.41,3.41l-1.01,1.01l0.55,1.47l0.46,1.38l0.55,1.47l1.93,1.01l1.38,0.46l1.01,0.09l1.47-0.55l3.87-3.87
	l2.95,2.95l-3.87,3.87l-1.01,1.93l-0.55,2.39l1.11,2.95l1.47,2.39l3.87,3.87L921.04,648.17L921.04,648.17z M950.6,655.44l5.8-5.8
	L950.6,655.44z M959.35,652.59l-5.8,5.8L959.35,652.59z M920.03,624.87l5.8-5.8L920.03,624.87z M928.78,622.02l-5.8,5.8
	L928.78,622.02z M930.25,657.38l-9.21-9.21C921.04,648.17,930.25,657.38,930.25,657.38z M923.99,645.22l9.21,9.21L923.99,645.22z"/>
<radialGradient id="seat29_1_" cx="1490.4696" cy="188.9999" r="28.8145" gradientTransform="matrix(0.7071 0.7071 -0.7071 0.7071 201.4951 -545.7489)" gradientUnits="userSpaceOnUse">
	<stop  offset="0" style="stop-color:#FFFFFF"/>
	<stop  offset="1" style="stop-color:#AFAFAF"/>
</radialGradient>
<path id="seat29" class="st28" d="M1128.13,657.29l-3.87,3.87l-2.39,1.47l-2.03,2.03l-1.47,2.39l0.09,1.93l1.47,1.47l2.3,0.46h2.03
	l1.93-1.01l2.86-1.93l2.39-2.39l3.96-2.85l3.96-3.96l5.71-6.81l4.42-5.34l1.47-4.42v-0.92l-0.46-1.38l-1.93-1.01h-2.03l-2.39,1.47
	l-2.95,3.87l-3.87,3.87l-2.95-2.95l3.87-3.87l1.47-2.39l1.01-2.85l-0.46-2.49l-1.01-1.93l-3.87-3.87l2.95-2.95l3.87,3.87l2.39,0.55
	l1.47-0.55l1.93-1.01l0.46-1.38l0.55-1.47v-0.92l-0.55-1.47l-3.41-3.41l-10.68-10.68l-1.47-0.55l-0.92,0l-1.93,0.09l-0.92,0.92
	l-1.47,1.47l-0.09,1.93l0.55,2.39l4.42,4.42l-2.95,2.95l-2.03-2.03l-1.84-0.92l-2.49-1.57l-5.8,0.09l-5.8,1.93l-6.81,4.79
	l-5.34,7.37l-2.39,6.26l0.37,5.34l2.49,4.33l2.03,2.03l-2.95,2.95l-4.42-4.42l-1.47-0.55l-1.01,0.09h-1.84l-1.47,1.47l-1.01,1.01
	v1.84l-0.55,1.47l1.01,1.01l10.68,10.68l3.41,3.41l1.01,1.01l1.47-0.55l1.38-0.46l1.47-0.55l1.01-1.93l0.46-1.38l0.09-1.01
	l-0.55-1.47l-3.87-3.87l2.95-2.95l3.87,3.87l1.93,1.01l2.39,0.55l2.95-1.11l2.39-1.47l3.87-3.87L1128.13,657.29L1128.13,657.29z
	 M1135.4,627.73l-5.8-5.8L1135.4,627.73z M1132.55,618.98l5.8,5.8L1132.55,618.98z M1104.83,658.3l-5.8-5.8L1104.83,658.3z
	 M1101.97,649.55l5.8,5.8L1101.97,649.55z M1137.34,648.08l-9.21,9.21C1128.13,657.29,1137.34,648.08,1137.34,648.08z
	 M1125.18,654.34l9.21-9.21L1125.18,654.34z"/>
<radialGradient id="seat30_1_" cx="964.4894" cy="1021.5317" r="28.8145" gradientTransform="matrix(0.7071 -0.7071 0.7071 0.7071 -282.5559 416.2184)" gradientUnits="userSpaceOnUse">
	<stop  offset="0" style="stop-color:#FFFFFF"/>
	<stop  offset="1" style="stop-color:#AFAFAF"/>
</radialGradient>
<path id="seat30" class="st29" d="M1137.24,450.2l3.87,3.87l1.47,2.39l2.03,2.03l2.39,1.47l1.93-0.09l1.47-1.47l0.46-2.3v-2.03
	l-1.01-1.93l-1.93-2.86l-2.39-2.39l-2.85-3.96l-3.96-3.96l-6.81-5.71l-5.34-4.42l-4.42-1.47h-0.92l-1.38,0.46l-1.01,1.93v2.03
	l1.47,2.39l3.87,2.95l3.87,3.87l-2.95,2.95l-3.87-3.87l-2.39-1.47l-2.85-1.01l-2.49,0.46l-1.93,1.01l-3.87,3.87l-2.95-2.95
	l3.87-3.87l0.55-2.39l-0.55-1.47l-1.01-1.93l-1.38-0.46l-1.47-0.55h-0.92l-1.47,0.55l-3.41,3.41l-10.68,10.68l-0.55,1.47l0,0.92
	l0.09,1.93l0.92,0.92l1.47,1.47l1.93,0.09l2.39-0.55l4.42-4.42l2.95,2.95l-2.03,2.03l-0.92,1.84l-1.57,2.49l0.09,5.8l1.93,5.8
	l4.79,6.81l7.37,5.34l6.26,2.39l5.34-0.37l4.33-2.49l2.03-2.03l2.95,2.95l-4.42,4.42l-0.55,1.47l0.09,1.01v1.84l1.47,1.47l1.01,1.01
	h1.84l1.47,0.55l1.01-1.01l10.68-10.68l3.41-3.41l1.01-1.01l-0.55-1.47l-0.46-1.38l-0.55-1.47l-1.93-1.01l-1.38-0.46l-1.01-0.09
	l-1.47,0.55l-3.87,3.87l-2.95-2.95l3.87-3.87l1.01-1.93l0.55-2.39l-1.11-2.95l-1.47-2.39l-3.87-3.87L1137.24,450.2L1137.24,450.2z
	 M1107.68,442.92l-5.8,5.8L1107.68,442.92z M1098.94,445.78l5.8-5.8L1098.94,445.78z M1138.26,473.5l-5.8,5.8L1138.26,473.5z
	 M1129.51,476.35l5.8-5.8L1129.51,476.35z M1128.04,440.99l9.21,9.21C1137.24,450.2,1128.04,440.99,1128.04,440.99z M1134.3,453.15
	l-9.21-9.21L1134.3,453.15z"/>
<radialGradient id="grey_1_" cx="669.2147" cy="1062.0563" r="28.8145" gradientTransform="matrix(-6.123234e-17 1 -1 -6.123234e-17 1170.4904 -175.9373)" gradientUnits="userSpaceOnUse">
	<stop  offset="0" style="stop-color:#FFFFFF"/>
	<stop  offset="1" style="stop-color:#AFAFAF"/>
</radialGradient>
<path id="grey" class="st30" d="M101.99,508.71h-5.47l-2.73-0.65h-2.87l-2.73,0.65l-1.3,1.43v2.08l1.3,1.95l1.43,1.43l2.08,0.65
	l3.39,0.65h3.39l4.82,0.78h5.6l8.86-0.78l6.9-0.65l4.17-2.08l0.65-0.65l0.65-1.3l-0.65-2.08l-1.43-1.43l-2.73-0.65l-4.82,0.65h-5.47
	v-4.17h5.47l2.73-0.65l2.73-1.3l1.43-2.08l0.65-2.08v-5.47h4.17v5.47l1.3,2.08l1.43,0.65l2.08,0.65l1.3-0.65l1.43-0.65l0.65-0.65
	l0.65-1.43v-4.82V478.5l-0.65-1.43l-0.65-0.65l-1.43-1.3h-1.3h-2.08l-1.43,1.3l-1.3,2.08v6.25h-4.17v-2.87l-0.65-1.95l-0.65-2.86
	l-4.17-4.04l-5.47-2.73l-8.2-1.43l-8.99,1.43l-6.12,2.73l-3.52,4.04l-1.3,4.82l0,2.87H84.8v-6.25l-0.65-1.43l-0.78-0.65l-1.3-1.3
	h-2.08h-1.43l-1.3,1.3l-1.43,0.65l0,1.43v15.11v4.82v1.43l1.43,0.65l1.3,0.65l1.43,0.65l2.08-0.65l1.3-0.65l0.78-0.65l0.65-1.43
	v-5.47h4.17v5.47l0.65,2.08l1.3,2.08l2.87,1.3l2.73,0.65h5.47L101.99,508.71L101.99,508.71z M128.03,492.95v-8.2V492.95z
	 M132.2,484.75v8.2V484.75z M84.8,492.95l0-8.2L84.8,492.95z M88.96,484.75v8.2V484.75z M115.01,508.71h-13.02
	C101.99,508.71,115.01,508.71,115.01,508.71z M101.99,504.54h13.02H101.99z"/>
<radialGradient id="red_1_" cx="731.2148" cy="1062.2776" r="28.8145" gradientTransform="matrix(-6.123234e-17 1 -1 -6.123234e-17 1170.4904 -175.9373)" gradientUnits="userSpaceOnUse">
	<stop  offset="0" style="stop-color:#FFFFFF"/>
	<stop  offset="1" style="stop-color:#FF0000"/>
</radialGradient>
<path id="red" class="st31" d="M101.77,570.71H96.3l-2.73-0.65H90.7l-2.73,0.65l-1.3,1.43v2.08l1.3,1.95l1.43,1.43l2.08,0.65
	l3.39,0.65h3.39l4.82,0.78h5.6l8.86-0.78l6.9-0.65l4.17-2.08l0.65-0.65l0.65-1.3l-0.65-2.08l-1.43-1.43l-2.73-0.65l-4.82,0.65h-5.47
	v-4.17h5.47l2.73-0.65l2.73-1.3l1.43-2.08l0.65-2.08l0-5.47h4.17v5.47l1.3,2.08l1.43,0.65l2.08,0.65l1.3-0.65l1.43-0.65l0.65-0.65
	l0.65-1.43v-4.82V540.5l-0.65-1.43l-0.65-0.65l-1.43-1.3h-1.3h-2.08l-1.43,1.3l-1.3,2.08v6.25h-4.17v-2.87l-0.65-1.95l-0.65-2.86
	l-4.17-4.04l-5.47-2.73l-8.2-1.43l-8.99,1.43l-6.12,2.73l-3.52,4.04l-1.3,4.82v2.87h-4.17v-6.25l-0.65-1.43l-0.78-0.65l-1.3-1.3
	h-2.08h-1.43l-1.3,1.3l-1.43,0.65v1.43v15.11l0,4.82v1.43l1.43,0.65l1.3,0.65l1.43,0.65l2.08-0.65l1.3-0.65l0.78-0.65l0.65-1.43
	v-5.47h4.17v5.47l0.65,2.08l1.3,2.08l2.87,1.3l2.73,0.65h5.47L101.77,570.71L101.77,570.71z M127.81,554.95l0-8.2L127.81,554.95z
	 M131.98,546.75v8.2V546.75z M84.58,554.95l0-8.2L84.58,554.95z M88.74,546.75v8.2V546.75z M114.79,570.71h-13.02
	C101.77,570.71,114.79,570.71,114.79,570.71z M101.77,566.54l13.02,0L101.77,566.54z"/>
<radialGradient id="green_1_" cx="796.2148" cy="1062.499" r="28.8145" gradientTransform="matrix(-6.123234e-17 1 -1 -6.123234e-17 1170.4904 -175.9373)" gradientUnits="userSpaceOnUse">
	<stop  offset="0" style="stop-color:#FFFFFF"/>
	<stop  offset="1" style="stop-color:#39B54A"/>
</radialGradient>
<path id="green" class="st32" d="M101.54,635.71h-5.47l-2.73-0.65h-2.87l-2.73,0.65l-1.3,1.43v2.08l1.3,1.95l1.43,1.43l2.08,0.65
	l3.39,0.65h3.39l4.82,0.78h5.6l8.86-0.78l6.9-0.65l4.17-2.08l0.65-0.65l0.65-1.3l-0.65-2.08l-1.43-1.43l-2.73-0.65l-4.82,0.65h-5.47
	v-4.17h5.47l2.73-0.65l2.73-1.3l1.43-2.08l0.65-2.08v-5.47h4.17v5.47l1.3,2.08l1.43,0.65l2.08,0.65l1.3-0.65l1.43-0.65l0.65-0.65
	l0.65-1.43v-4.82V605.5l-0.65-1.43l-0.65-0.65l-1.43-1.3h-1.3h-2.08l-1.43,1.3l-1.3,2.08v6.25h-4.17v-2.87l-0.65-1.95l-0.65-2.86
	l-4.17-4.04l-5.47-2.73l-8.2-1.43l-8.99,1.43l-6.12,2.73l-3.52,4.04l-1.3,4.82v2.87h-4.17l0-6.25l-0.65-1.43l-0.78-0.65l-1.3-1.3
	h-2.08H78.1l-1.3,1.3l-1.43,0.65v1.43l0,15.11v4.82v1.43l1.43,0.65l1.3,0.65l1.43,0.65l2.08-0.65l1.3-0.65l0.78-0.65l0.65-1.43
	v-5.47h4.17l0,5.47l0.65,2.08l1.3,2.08l2.87,1.3l2.73,0.65h5.47L101.54,635.71L101.54,635.71z M127.59,619.95l0-8.2L127.59,619.95z
	 M131.76,611.75v8.2V611.75z M84.35,619.95v-8.2V619.95z M88.52,611.75v8.2V611.75z M114.57,635.71l-13.02,0
	C101.54,635.71,114.57,635.71,114.57,635.71z M101.54,631.54h13.02H101.54z"/>
<g id="tableA">
	<path class="st33" d="M224.4,340.99h-79c-6.6,0-12-5.4-12-12v-266c0-6.6,5.4-12,12-12h79c6.6,0,12,5.4,12,12v266
		C236.4,335.59,231,340.99,224.4,340.99z"/>
</g>
<g id="tableB">
	<path class="st33" d="M471.86,233v-79c0-6.6,5.4-12,12-12H1042c6.6,0,12,5.4,12,12v79c0,6.6-5.4,12-12,12H483.86
		C477.26,245,471.86,239.6,471.86,233z"/>
</g>
<g id="tableC">
	<path class="st33" d="M417.71,605.75L417.71,605.75c-31.11,31.11-82.02,31.11-113.14,0l0,0c-31.11-31.11-31.11-82.02,0-113.14l0,0
		c31.11-31.11,82.02-31.11,113.14,0l0,0C448.82,523.73,448.82,574.64,417.71,605.75z"/>
</g>
<g id="tableD">
	<path class="st33" d="M760.71,605.75L760.71,605.75c-31.11,31.11-82.02,31.11-113.14,0l0,0c-31.11-31.11-31.11-82.02,0-113.14l0,0
		c31.11-31.11,82.02-31.11,113.14,0l0,0C791.82,523.73,791.82,574.64,760.71,605.75z"/>
</g>
<g id="tableE">
	<path class="st33" d="M1085.71,605.75L1085.71,605.75c-31.11,31.11-82.02,31.11-113.14,0l0,0c-31.11-31.11-31.11-82.02,0-113.14
		l0,0c31.11-31.11,82.02-31.11,113.14,0l0,0C1116.82,523.73,1116.82,574.64,1085.71,605.75z"/>
</g>
</svg>
