<?xml version="1.0" encoding="utf-8"?>
<!-- Generator: Adobe Illustrator 25.2.1, SVG Export Plug-In . SVG Version: 6.00 Build 0)  -->
<svg version="1.1" id="Layer_1" xmlns="http://www.w3.org/2000/svg" xmlns:xlink="http://www.w3.org/1999/xlink" x="0px" y="0px"
	 viewBox="0 0 237.65 115.38" style="enable-background:new 0 0 237.65 115.38;" xml:space="preserve">
<style type="text/css">
	.st0{fill:none;}
	.st1{fill:url(#SVGID_1_);}
	.st2{fill:#FFFFFF;}
	.st3{fill:#D8D9D8;}
	.st4{fill:#C9C9C9;}
	.st5{opacity:0.18;fill:#482316;}
	.st6{fill:#DDDAC7;}
	.st7{fill:url(#SVGID_2_);}
	.st8{fill:url(#SVGID_3_);}
	.st9{fill-rule:evenodd;clip-rule:evenodd;fill:#3DB54A;stroke:#FFFFFF;stroke-width:0.25;stroke-miterlimit:11.7338;}
	.st10{fill-rule:evenodd;clip-rule:evenodd;fill:#D2D2D2;stroke:#FFFFFF;stroke-width:0.25;stroke-miterlimit:11.7338;}
	.st11{fill:#245C2E;}
	.st12{fill:#3DB54A;}
	.st13{fill:#383836;}
	.st14{opacity:0.2;}
	.st15{fill:#060706;}
	.st16{fill:#595A5A;}
	.st17{fill:url(#SVGID_4_);}
	.st18{fill:#D2D2D2;}
	.st19{fill:#68C5AC;}
	.st20{fill:url(#SVGID_5_);}
</style>
<g>
	<path class="st0" d="M-68.68,94.83c-0.25-0.55-1.53-0.74-2.46-0.89c-0.58-0.09-1.16-0.12-1.74-0.09c0.04,1.44-0.13,3.19-0.8,5.02
		c1.07-0.01,2.41-0.26,3.49-1.2C-69.24,96.85-68.38,95.47-68.68,94.83z"/>
	
		<linearGradient id="SVGID_1_" gradientUnits="userSpaceOnUse" x1="-252.6023" y1="32.9898" x2="-259.7357" y2="31.9873" gradientTransform="matrix(0.8032 -0.0534 0.0664 0.9978 132.5809 50.2542)">
		<stop  offset="1.030999e-07" style="stop-color:#FFFFFF"/>
		<stop  offset="0.2339" style="stop-color:#F9F9F9"/>
		<stop  offset="0.4194" style="stop-color:#EEEDEC"/>
		<stop  offset="0.5884" style="stop-color:#DDDBDB"/>
		<stop  offset="0.7475" style="stop-color:#C7C5C5"/>
		<stop  offset="0.8983" style="stop-color:#ADACAC"/>
		<stop  offset="1" style="stop-color:#989898"/>
	</linearGradient>
	<path class="st1" d="M-72.44,93.54c0.76,0.09,1.8,0.22,2.04,0.76c0.28,0.63-0.31,2.05-1.02,2.93c-0.8,0.99-1.87,1.31-2.72,1.38
		c-0.14,0.63-0.33,1.28-0.57,1.92c0.2,0.01,0.41,0.01,0.64-0.01c1.16-0.08,2.61-0.5,3.76-1.93c0.8-0.99,2.09-3.35,1.26-5.19
		c-0.65-1.43-2.1-1.61-3.26-1.76c-0.6-0.07-1.19-0.07-1.78,0.02c0.1,0.53,0.2,1.17,0.27,1.89C-73.38,93.49-72.91,93.48-72.44,93.54z
		"/>
	<path class="st2" d="M-80.7,106.35c-1.48,0-2.97,0-4.45,0c0.75-0.6,1.5-1.29,2.23-2.07c4.39-4.68,5.78-10.27,6.27-13.78
		c-7.31,0-14.62,0-21.93,0c-0.3,0.84-2.26,6.68,1.8,11.81c1.72,2.18,3.89,3.43,5.43,4.13c-4.09-0.12-7.97-0.37-11.61-0.71
		c-0.13,0-0.35,0.01-0.47,0.16c0,0-0.15,0.19,0,0.62c0.63,1.78,11.65,2.33,11.65,2.33c0.66,0.03,5.78,0.06,12.16,0
		c1.94-0.02,4.21-0.25,6.69-0.93c1.29-0.35,2.48-0.78,3.57-1.24c0.34-0.21,0.48-0.57,0.41-0.76c-0.06-0.19-0.32-0.2-0.35-0.2
		c-3.59,0.34-7.43,0.6-11.47,0.72c0.24-0.12,0.48-0.26,0.74-0.41C-80.28,106.16-80.51,106.27-80.7,106.35z"/>
	<path class="st3" d="M-75.95,102.63c-1.29,1.56-2.78,2.65-4.07,3.4c1.38-0.72,3.71-2.24,5.37-5.08c0.04-0.06,0.07-0.12,0.1-0.19
		c-0.04,0-0.07-0.01-0.11-0.01C-75.01,101.38-75.44,102.01-75.95,102.63z"/>
	<path class="st3" d="M-72.88,93.85c-0.03,0-0.06,0-0.09,0c0.03,1.44-0.14,3.2-0.81,5.02c0.03,0,0.07,0,0.1,0
		C-73.01,97.04-72.85,95.29-72.88,93.85z"/>
	<path class="st3" d="M-73.14,91.95c0.03,0,0.05,0,0.08,0c-0.11-0.73-0.25-1.25-0.32-1.5c-1.09,0-2.17,0-3.26,0
		c0,0.02-0.01,0.04-0.01,0.05c1.07,0,2.14,0,3.21,0C-73.37,90.75-73.24,91.26-73.14,91.95z"/>
	<path class="st4" d="M-85.15,106.35c1.48,0,2.97,0,4.45,0c0.18-0.08,0.41-0.19,0.67-0.33c1.29-0.75,2.78-1.84,4.07-3.4
		c0.51-0.62,0.94-1.25,1.3-1.88c0.03,0,0.07,0.01,0.11,0.01c0.35-0.63,0.64-1.26,0.87-1.88c-0.03,0-0.07,0-0.1,0
		c0.67-1.83,0.85-3.58,0.81-5.02c0.03,0,0.06,0,0.09,0c-0.02-0.72-0.09-1.37-0.17-1.9c-0.03,0-0.05,0-0.08,0
		c-0.1-0.69-0.23-1.2-0.3-1.45c-1.07,0-2.14,0-3.21,0c-0.49,3.51-1.89,9.11-6.27,13.78C-83.65,105.06-84.4,105.75-85.15,106.35z"/>
	<path class="st5" d="M-82.53,77.37c-0.09-0.62-0.22-1.23-0.38-1.88c-0.07-0.3-0.17-0.62-0.27-0.91l-0.03-0.11
		c-0.08-0.24-0.16-0.49-0.24-0.73c-0.2-0.57-0.42-1.11-0.64-1.6c-0.12-0.28-0.26-0.55-0.39-0.8c-0.1-0.21-0.2-0.4-0.28-0.58
		c-0.11-0.24-0.15-0.37-0.17-0.42c-0.01-0.04-0.02-0.07-0.02-0.07l0-0.1c0-0.07,0-0.1,0-0.12c0-0.07,0-0.09,0.03-0.15
		c0.01-0.02,0.07-0.12,0.32-0.31c0.48-0.38,0.86-0.71,1.13-1c0.45-0.47,1.02-1.41,0.85-1.74c-0.09-0.17-0.23-0.08-0.44,0.05
		c-0.18,0.12-0.46,0.3-0.87,0.46c-0.23,0.09-0.37,0.13-0.55,0.18c-0.14,0.04-0.31,0.09-0.57,0.18l-0.03,0.01
		c-0.2,0.07-0.46,0.15-0.74,0.4c-0.31,0.27-0.58,0.76-0.71,1.27c-0.07,0.28-0.09,0.45-0.12,0.71c-0.02,0.26-0.02,0.53,0,0.78
		c0.05,0.5,0.17,0.89,0.29,1.24c0.21,0.57,0.42,1.01,0.61,1.44l0.72,1.55c0.09,0.19,0.18,0.38,0.26,0.57l0.06,0.13
		c0.11,0.25,0.2,0.45,0.28,0.67c0.28,0.75,0.42,1.45,0.42,1.45c0.23,1.33,0.01,2.64-0.58,3.42c-0.08,0.1-0.79,1.01-1.55,0.67
		c-0.43-0.19-0.67-0.69-0.82-1.01c-0.48-0.99-0.49-2.07-0.5-2.59c0-0.29-0.01-0.48-0.15-0.49c-0.05-0.01-0.09,0.02-0.13,0.11
		c-0.15,0.33-0.42,2.48,0.09,3.79c0.31,0.8,0.76,1.25,1,1.45c0.37,0.31,0.83,0.47,1.32,0.47c0.03,0,0.06,0,0.09,0
		c0.5-0.04,0.98-0.24,1.4-0.58c0.47-0.37,0.88-0.97,1.11-1.64c0.21-0.62,0.32-1.33,0.33-2.16C-82.37,78.75-82.42,78.09-82.53,77.37z
		"/>
</g>
<circle class="st6" cx="-107.85" cy="-19.5" r="8.5"/>
<linearGradient id="SVGID_2_" gradientUnits="userSpaceOnUse" x1="-75.8525" y1="-11" x2="-75.8525" y2="-26">
	<stop  offset="2.184394e-07" style="stop-color:#F4846E;stop-opacity:0"/>
	<stop  offset="1" style="stop-color:#FEE992"/>
</linearGradient>
<circle class="st7" cx="-75.85" cy="-18.5" r="7.5"/>
<linearGradient id="SVGID_3_" gradientUnits="userSpaceOnUse" x1="-38.3525" y1="-2" x2="-38.3525" y2="-26">
	<stop  offset="2.184394e-07" style="stop-color:#F4846E;stop-opacity:0"/>
	<stop  offset="1" style="stop-color:#FEE992"/>
</linearGradient>
<circle class="st8" cx="-38.35" cy="-14" r="12"/>
<path id="green" class="st9" d="M-110.47,25.21h-1.98l-0.99-0.23h-1.04l-0.99,0.23l-0.47,0.52v0.75l0.47,0.7l0.52,0.52l0.75,0.23
	l1.23,0.23h1.23l1.74,0.28h2.02l3.2-0.28l2.49-0.23l1.51-0.75l0.23-0.23l0.23-0.47l-0.23-0.75l-0.52-0.52l-0.99-0.23l-1.74,0.23
	h-1.98V23.7h1.98l0.99-0.23l0.99-0.47l0.52-0.75l0.23-0.75v-1.98h1.51v1.98l0.47,0.75l0.52,0.23l0.75,0.23l0.47-0.23l0.52-0.23
	l0.23-0.23l0.23-0.52v-1.74v-5.46l-0.23-0.52l-0.23-0.23l-0.52-0.47h-0.47h-0.75l-0.52,0.47l-0.47,0.75v2.26h-1.51v-1.04l-0.23-0.7
	l-0.23-1.03l-1.51-1.46l-1.98-0.99l-2.96-0.52l-3.25,0.52l-2.21,0.99l-1.27,1.46l-0.47,1.74v1.04h-1.51v-2.26l-0.23-0.52l-0.28-0.23
	l-0.47-0.47h-0.75h-0.52l-0.47,0.47l-0.52,0.23v0.52v5.46v1.74v0.52l0.52,0.23l0.47,0.23l0.52,0.23l0.75-0.23l0.47-0.23l0.28-0.23
	l0.23-0.52v-1.98h1.51v1.98l0.23,0.75l0.47,0.75l1.04,0.47l0.99,0.23h1.98L-110.47,25.21L-110.47,25.21z M-101.05,19.51v-2.96V19.51
	z M-99.55,16.55v2.96V16.55z M-116.68,19.51v-2.96V19.51z M-115.17,16.55v2.96V16.55z M-105.76,25.21h-4.71
	C-110.47,25.21-105.76,25.21-105.76,25.21z M-110.47,23.7h4.71H-110.47z"/>
<path id="Rome_1" class="st10" d="M-113.19,46.96l1.69-1.69l1.05-0.64l0.89-0.89l0.64-1.05l-0.04-0.84l-0.64-0.64l-1.01-0.2h-0.89
	l-0.84,0.44l-1.25,0.84l-1.05,1.05l-1.73,1.25l-1.73,1.73l-2.5,2.98l-1.93,2.34l-0.64,1.93v0.4l0.2,0.6l0.84,0.44h0.89l1.05-0.64
	l1.29-1.69l1.69-1.69l1.29,1.29l-1.69,1.69l-0.64,1.05l-0.44,1.25l0.2,1.09l0.44,0.84l1.69,1.69l-1.29,1.29l-1.69-1.69l-1.05-0.24
	l-0.64,0.24l-0.84,0.44l-0.2,0.6l-0.24,0.64v0.4l0.24,0.64l1.49,1.49l4.67,4.67l0.64,0.24h0.4l0.84-0.04l0.4-0.4l0.64-0.64
	l0.04-0.84l-0.24-1.05l-1.93-1.93l1.29-1.29l0.89,0.89l0.8,0.4l1.09,0.69l2.54-0.04l2.54-0.84l2.98-2.09l2.34-3.22l1.05-2.74
	l-0.16-2.34l-1.09-1.89l-0.89-0.89l1.29-1.29l1.93,1.93l0.64,0.24l0.44-0.04h0.8l0.64-0.64l0.44-0.44v-0.8l0.24-0.64l-0.44-0.44
	l-4.67-4.67l-1.49-1.49l-0.44-0.44l-0.64,0.24l-0.6,0.2l-0.64,0.24l-0.44,0.84l-0.2,0.6l-0.04,0.44l0.24,0.64l1.69,1.69l-1.29,1.29
	l-1.69-1.69l-0.84-0.44l-1.05-0.24l-1.29,0.49l-1.05,0.64l-1.69,1.69L-113.19,46.96L-113.19,46.96z M-116.37,59.88l2.54,2.54
	L-116.37,59.88z M-115.12,63.71l-2.54-2.54L-115.12,63.71z M-103,46.51l2.54,2.54L-103,46.51z M-101.75,50.34l-2.54-2.54
	L-101.75,50.34z M-117.21,50.98l4.03-4.03C-113.19,46.96-117.21,50.98-117.21,50.98z M-111.9,48.25l-4.03,4.03L-111.9,48.25z"/>
<g>
	<g>
		<path class="st11" d="M202.65,102.09h-13.87V84.6c0-3.35,2.72-6.07,6.07-6.07h1.73c3.35,0,6.07,2.72,6.07,6.07V102.09z"/>
		<path class="st11" d="M220.61,107.07h-49.82v0c0-4.07,3.3-7.36,7.36-7.36h35.09C217.32,99.71,220.61,103.01,220.61,107.07
			L220.61,107.07z"/>
	</g>
	<circle class="st12" cx="195.7" cy="86.29" r="5.93"/>
	<g>
		
			<rect x="183.92" y="4.4" transform="matrix(0.0862 -0.9963 0.9963 0.0862 159.4307 193.3707)" class="st11" width="2.4" height="10.75"/>
	</g>
	<path class="st12" d="M178.07,39.25l-29.39-13.73c-1.99-0.93-2.3-3.47-0.56-4.54l18.77-11.5c0.41-0.25,0.72-0.6,0.92-1.02
		l3.29-7.05c0.6-1.28,2.23-1.78,3.64-1.12l6.12,2.86c1.41,0.66,2.08,2.23,1.48,3.51l-3.37,7.22c-0.19,0.42-0.26,0.89-0.19,1.35
		l3.13,21.53C182.21,38.8,180.06,40.18,178.07,39.25z"/>
	<g>
		<path class="st11" d="M198.63,87.66L198.63,87.66c-0.59-0.29-0.84-1.01-0.54-1.61c8.18-16.52,16.36-33.04,24.54-49.55
			c1.01-1.15,2.02-2.29,3.02-3.44c0.14-0.19,1.27-1.76,0.72-3.76c-0.5-1.81-2-2.6-2.24-2.72c-1.86-0.49-3.73-0.97-5.59-1.46
			c-8.44-4.94-16.88-9.87-25.32-14.81c-0.07-0.04-0.43-0.24-0.89-0.13c-0.29,0.07-0.56,0.25-0.73,0.52l-0.54,0.84
			c-0.37,0.57-0.18,1.33,0.4,1.68c8.2,4.85,16.4,9.7,24.59,14.56c0.49,0.93,1.03,2.13,1.44,3.6c0.47,1.7,0.62,3.22,0.64,4.37
			L194.8,84.38c-0.29,0.6-1,0.85-1.6,0.56l0,0c-0.6-0.29-0.85-1-0.56-1.6c7.93-16.53,15.87-33.06,23.8-49.59
			c0.21-0.44,0.42-0.88,0.63-1.31c-0.13-0.22-0.27-0.53-0.37-0.9c-0.06-0.24-0.09-0.46-0.1-0.65c-0.38-0.23-0.76-0.45-1.15-0.68
			c-9.11-5.4-18.23-10.79-27.34-16.19c-0.07-0.04-0.44-0.27-0.56-0.75c-0.07-0.3-0.03-0.64,0.16-0.92l3.12-4.88
			c0.35-0.54,1.06-0.71,1.62-0.39l29.49,17.25c0.37,0.13,3.61,1.31,4.76,4.81c1.22,3.73-1.02,6.76-1.22,7.02l-25.24,50.96
			C199.95,87.71,199.23,87.95,198.63,87.66z"/>
	</g>
	<circle class="st11" cx="195.7" cy="86.29" r="4.47"/>
	<circle class="st6" cx="195.7" cy="86.29" r="1.13"/>
	<path class="st11" d="M221.65,24.29c-3.4,0-6.16,2.76-6.16,6.16c0,3.4,2.76,6.16,6.16,6.16c3.4,0,6.16-2.76,6.16-6.16
		C227.81,27.05,225.05,24.29,221.65,24.29z M221.65,34.5c-2.24,0-4.05-1.81-4.05-4.05c0-2.24,1.81-4.05,4.05-4.05
		s4.05,1.81,4.05,4.05C225.7,32.68,223.89,34.5,221.65,34.5z"/>
	<rect x="0.01" y="106.97" class="st13" width="237.63" height="8.4"/>
	<g class="st14">
		<path class="st2" d="M151.07,25.26c-0.61,0.02-1.2-0.09-1.75-0.42c-0.52-0.33-1.07-0.87-1.35-1.7c-0.29-0.82-0.25-1.87,0.04-2.72
			c0.28-0.86,0.71-1.54,1.15-2.07c0.41-0.54,0.93-0.96,1.22-1.23c0.27-0.26,0.57-0.49,0.86-0.7c0.58-0.43,1.23-0.71,2-0.72
			c1.52-0.06,3.46,0.78,4.79,0.42c1.36-0.31,2.32-1.4,3-2.88c0.35-0.72,0.66-1.47,1.02-2.07c0.35-0.62,0.76-1.08,1.13-1.55
			c0.76-0.99,0.94-1.68,1.58-2.19c0.31-0.26,0.68-0.51,1.13-0.77c0.43-0.27,0.92-0.57,1.48-0.9c0.55-0.33,1.17-0.7,1.89-1.09
			c0.71-0.4,1.48-0.84,2.48-1.3l0.98,0.22c0.69,0.87,1.13,1.74,1.42,2.63c0.33,0.9,0.45,1.81,0.47,2.72c0.01,1.82-0.5,3.69-1.6,5.28
			c-0.55,0.79-1.28,1.47-2.09,2.01c-0.41,0.28-0.82,0.46-1.22,0.69c-0.4,0.19-0.79,0.34-1.18,0.5c-0.76,0.29-1.5,0.56-2.31,0.64
			c-0.8,0.09-1.67,0.02-2.51-0.04c-1.69-0.16-3.13,0.02-4.19,0.96c-1.07,0.89-1.56,2.95-2.45,4.14c-0.44,0.61-1,0.95-1.61,1.17
			c-0.31,0.11-0.61,0.2-0.93,0.27c-0.3,0.05-0.37-0.01-0.48-0.13c-0.09-0.1-0.15-0.29-0.2-0.56c-0.07-0.27-0.22-0.64-0.5-0.78
			c-0.61-0.29-1.15,0.46-1.49,1.54L151.07,25.26z"/>
	</g>
	<path class="st11" d="M181.91,36.78l-3.13-21.53c-0.07-0.47,0-0.94,0.19-1.35l3.37-7.22c0.6-1.28-0.06-2.85-1.48-3.51l-6.12-2.86
		c-0.08-0.04-0.16-0.07-0.23-0.1l2.16,1.01c1.41,0.66,2.08,2.23,1.48,3.51l-3.37,7.22c-0.19,0.42-0.26,0.89-0.19,1.35
		c-1.36,6.38-2.73,12.75-4.09,19.13c-0.09,0.31-0.29,0.84-0.78,1.24c-0.81,0.67-2.07,0.72-3.2,0.12c3.85,1.82,7.71,3.65,11.56,5.47
		C180.06,40.18,182.21,38.8,181.91,36.78z"/>
	<polygon class="st15" points="0.01,113.01 237.65,109.14 237.61,113.97 0,113.97 	"/>
	<g>
		<path class="st6" d="M153.56,107.05H62.32c-2.62,0-4.75-2.12-4.75-4.75v0c0-0.92,0.74-1.66,1.66-1.66h97.68
			c0.77,0,1.39,0.62,1.39,1.39v0.26C158.31,104.93,156.18,107.05,153.56,107.05z"/>
		<path class="st6" d="M148.5,100.65H67.38c-3.89,0-7.07-3.18-7.07-7.07V45.92c0-3.89,3.18-7.07,7.07-7.07h81.12
			c3.89,0,7.07,3.18,7.07,7.07v47.66C155.57,97.47,152.39,100.65,148.5,100.65z"/>
		<rect x="66.11" y="43.03" class="st13" width="84.17" height="53.7"/>
		<path class="st6" d="M153.56,107.05c-16.69,0-33.38,0-50.07,0c3.57-1.02,7.18-2.02,10.81-3.02c4.16-1.14,8.3-2.26,12.4-3.34
			c10.07-0.01,20.14-0.03,30.21-0.04c0.77,0,1.39,0.62,1.39,1.39v0.26C158.31,104.93,156.18,107.05,153.56,107.05z"/>
		<path class="st16" d="M98.78,104.46h18.86c1.06,0,1.92,0.86,1.92,1.92v0c0,0.37-0.3,0.67-0.67,0.67H97.42
			c-0.31,0-0.56-0.25-0.56-0.56v-0.11C96.86,105.32,97.72,104.46,98.78,104.46z"/>
	</g>
	<linearGradient id="SVGID_4_" gradientUnits="userSpaceOnUse" x1="119.9269" y1="107.0519" x2="119.9269" y2="26.2813">
		<stop  offset="1.028263e-06" style="stop-color:#DDDAC7;stop-opacity:0"/>
		<stop  offset="1" style="stop-color:#DDDAC7"/>
	</linearGradient>
	<path class="st17" d="M150.22,26.28C115.5,53.2,80.79,80.13,46.07,107.05c49.24,0,98.47,0,147.71,0
		c-5.95-22.98-11.89-45.95-17.84-68.93C167.37,34.18,158.79,30.23,150.22,26.28z"/>
	<path class="st13" d="M29.58,83.65L29.58,83.65c-0.93,0-1.69-0.76-1.69-1.69V32.25c0-0.93,0.76-1.69,1.69-1.69h0
		c0.93,0,1.69,0.76,1.69,1.69v49.71C31.28,82.89,30.51,83.65,29.58,83.65z"/>
	<path class="st13" d="M35.04,107H20.22c-0.57,0-1.09-0.42-1.16-0.94l-3.1-24.83c-0.12-0.99,0.43-1.81,1.24-1.81h20.86
		c0.81,0,1.36,0.82,1.24,1.81l-3.1,24.83C36.13,106.58,35.61,107,35.04,107z"/>
	<path class="st18" d="M39.06,79.42c-2.67,0-5.33,0-8,0c-1.12,9.19-2.23,18.39-3.35,27.58h8.32c0.57,0,1.09-0.42,1.16-0.94
		l3.1-24.83C40.43,80.24,39.87,79.42,39.06,79.42z"/>
	<g>
		<path class="st12" d="M14.87,45.25c-6.72-1.45-12.22,2.27-13.7,3.38c7.77-0.46,11.72,1.55,13.89,3.56
			c2.03,1.87,2.99,4.18,6.09,5.07c1.96,0.56,3.95,0.32,5.58,1.96c0.78,0.79,1.16,1.68,1.4,1.94C27.25,53.15,21.8,46.75,14.87,45.25z
			"/>
		<path class="st19" d="M28.67,52.82c0.72-3.68-3.4-8.19-6.18-9.88C17.09,39.65,8.13,41.71,1,48.65c0.06,0,0.11-0.01,0.17-0.01
			c1.47-1.11,6.97-4.83,13.7-3.38c6.93,1.5,12.39,7.89,13.26,15.91c0.06,0.06,0.1,0.09,0.15,0.07c0.34-0.13-0.61-2.38-0.31-5.41
			C28.13,54.27,28.51,53.65,28.67,52.82z"/>
		<path class="st11" d="M28.67,52.82c0.72-3.68-3.4-8.19-6.18-9.88C17.09,39.65,8.13,41.71,1,48.65c0.06,0,0.11-0.01,0.17-0.01
			c1.47-1.11,6.97-4.83,13.7-3.38c6.93,1.5,12.39,7.89,13.26,15.91c0.06,0.06,0.1,0.09,0.15,0.07c0.34-0.13-0.61-2.38-0.31-5.41
			C28.13,54.27,28.51,53.65,28.67,52.82z"/>
		<path class="st2" d="M25.06,52.66c-2.81,0.32-5.57,1.13-8.12,2.4c2.48-1.4,5.22-2.37,8.06-2.84L25.06,52.66z"/>
		<path class="st2" d="M16,45.88c-1.17,0.39-2.3,0.94-3.35,1.61c-1.05,0.68-2.01,1.49-2.87,2.41c0.8-0.97,1.72-1.84,2.74-2.59
			c1.02-0.75,2.14-1.37,3.32-1.85L16,45.88z"/>
		<path class="st2" d="M1.11,48.64c1.18-0.98,2.5-1.78,3.9-2.43c1.4-0.64,2.89-1.11,4.42-1.35c1.53-0.25,3.11-0.25,4.65-0.03
			c1.54,0.24,3.04,0.72,4.44,1.41c0.7,0.35,1.37,0.75,2.01,1.19c0.64,0.44,1.25,0.92,1.82,1.45c1.14,1.06,2.15,2.25,2.97,3.56
			c1.66,2.61,2.65,5.63,2.88,8.68c-0.5-3.01-1.61-5.9-3.31-8.4l-0.16-0.23l-0.17-0.23c-0.11-0.15-0.22-0.31-0.34-0.45
			c-0.12-0.15-0.23-0.3-0.35-0.44l-0.36-0.43c-0.5-0.57-1.02-1.1-1.58-1.6c-1.11-1-2.37-1.85-3.71-2.51
			c-1.34-0.67-2.78-1.13-4.25-1.38c-1.48-0.25-2.99-0.26-4.48-0.08c-0.75,0.09-1.48,0.24-2.21,0.43c-0.73,0.19-1.45,0.43-2.15,0.71
			C3.72,47.06,2.37,47.78,1.11,48.64z"/>
		<path class="st2" d="M20.97,48.2c0.49-0.85,1.19-1.56,2-2.07c0.41-0.26,0.84-0.46,1.3-0.61c0.45-0.15,0.92-0.24,1.39-0.28
			c-0.47,0.07-0.92,0.2-1.35,0.38c-0.43,0.18-0.84,0.41-1.21,0.68c-0.75,0.55-1.35,1.28-1.74,2.09L20.97,48.2z"/>
		<path class="st2" d="M8.89,45.09c0.19-0.67,0.53-1.3,0.98-1.81c0.45-0.52,1.01-0.92,1.62-1.19c-0.58,0.34-1.07,0.79-1.44,1.33
			c-0.37,0.53-0.62,1.15-0.72,1.77L8.89,45.09z"/>
	</g>
	<g>
		<path class="st12" d="M18.97,16.85c-6.23-2.91-12.42-0.5-14.11,0.25c7.68,1.28,11.08,4.12,12.75,6.56
			c1.56,2.28,1.99,4.74,4.81,6.29c1.79,0.99,3.78,1.19,5,3.15c0.59,0.94,0.75,1.89,0.93,2.2C29.29,27.3,25.4,19.85,18.97,16.85z"/>
		<path class="st19" d="M30.74,27.29c1.52-3.43-1.49-8.74-3.83-11.01c-4.52-4.4-13.72-4.38-22.22,0.79
			c0.06,0.01,0.11,0.02,0.17,0.03c1.69-0.76,7.87-3.16,14.11-0.25c6.42,3,10.32,10.45,9.39,18.46c0.04,0.07,0.08,0.11,0.13,0.1
			c0.36-0.05-0.07-2.46,0.9-5.34C29.89,28.58,30.4,28.06,30.74,27.29z"/>
		<path class="st11" d="M30.74,27.29c1.52-3.43-1.49-8.74-3.83-11.01c-4.52-4.4-13.72-4.38-22.22,0.79
			c0.06,0.01,0.11,0.02,0.17,0.03c1.69-0.76,7.87-3.16,14.11-0.25c6.42,3,10.32,10.45,9.39,18.46c0.04,0.07,0.08,0.11,0.13,0.1
			c0.36-0.05-0.07-2.46,0.9-5.34C29.89,28.58,30.4,28.06,30.74,27.29z"/>
		<path class="st2" d="M27.26,26.34c-2.81-0.31-5.68-0.14-8.45,0.53c2.73-0.81,5.62-1.14,8.49-0.97L27.26,26.34z"/>
		<path class="st2" d="M19.94,17.71c-1.23,0.12-2.45,0.4-3.62,0.83c-1.17,0.43-2.29,1-3.33,1.71c0.99-0.77,2.09-1.41,3.25-1.92
			c1.16-0.5,2.39-0.86,3.65-1.06L19.94,17.71z"/>
		<path class="st2" d="M4.8,17.09c1.37-0.69,2.83-1.18,4.34-1.5c1.51-0.31,3.06-0.44,4.61-0.34c1.55,0.1,3.08,0.44,4.54,1.01
			c1.45,0.58,2.81,1.38,4.02,2.36c0.6,0.49,1.17,1.03,1.69,1.61c0.53,0.57,1.02,1.18,1.45,1.82c0.88,1.28,1.59,2.67,2.1,4.14
			c1.04,2.92,1.33,6.08,0.88,9.1c0.18-3.05-0.26-6.11-1.36-8.92l-0.1-0.26l-0.11-0.26c-0.08-0.17-0.15-0.35-0.23-0.52
			c-0.08-0.17-0.16-0.34-0.24-0.51l-0.26-0.5c-0.36-0.66-0.75-1.3-1.19-1.91c-0.86-1.23-1.9-2.33-3.05-3.27
			c-1.16-0.95-2.45-1.72-3.84-2.29c-1.38-0.57-2.85-0.92-4.35-1.07c-0.75-0.08-1.5-0.09-2.26-0.07c-0.75,0.02-1.51,0.09-2.26,0.21
			C7.7,16.13,6.23,16.53,4.8,17.09z"/>
		<path class="st2" d="M24.27,21.08c0.67-0.71,1.51-1.26,2.41-1.57c0.45-0.16,0.93-0.26,1.4-0.3c0.47-0.04,0.95-0.03,1.42,0.04
			c-0.47-0.03-0.94-0.01-1.4,0.07c-0.46,0.08-0.91,0.21-1.33,0.4c-0.85,0.37-1.6,0.95-2.16,1.65L24.27,21.08z"/>
		<path class="st2" d="M13.18,15.35c0.34-0.61,0.8-1.15,1.36-1.55c0.55-0.4,1.19-0.67,1.84-0.8c-0.64,0.2-1.22,0.53-1.7,0.97
			c-0.48,0.44-0.86,0.98-1.1,1.57L13.18,15.35z"/>
	</g>
	<g>
		<path class="st12" d="M45.54,27.94c6.85-0.57,11.82,3.83,13.14,5.13c-7.65-1.46-11.82,0.03-14.24,1.74
			c-2.26,1.59-3.51,3.76-6.69,4.24c-2.02,0.31-3.96-0.19-5.79,1.22c-0.88,0.68-1.36,1.52-1.64,1.74
			C32.23,34.17,38.47,28.53,45.54,27.94z"/>
		<path class="st19" d="M30.88,33.66c-0.24-3.74,4.44-7.68,7.41-9c5.77-2.56,14.39,0.64,20.56,8.44c-0.06-0.01-0.11-0.02-0.17-0.03
			c-1.32-1.29-6.29-5.7-13.14-5.13c-7.06,0.59-13.3,6.22-15.21,14.06c-0.06,0.05-0.11,0.07-0.16,0.05
			c-0.33-0.17,0.91-2.28,1.01-5.32C31.22,35.16,30.93,34.5,30.88,33.66z"/>
		<path class="st11" d="M30.88,33.66c-0.24-3.74,4.44-7.68,7.41-9c5.77-2.56,14.39,0.64,20.56,8.44c-0.06-0.01-0.11-0.02-0.17-0.03
			c-1.32-1.29-6.29-5.7-13.14-5.13c-7.06,0.59-13.3,6.22-15.21,14.06c-0.06,0.05-0.11,0.07-0.16,0.05
			c-0.33-0.17,0.91-2.28,1.01-5.32C31.22,35.16,30.93,34.5,30.88,33.66z"/>
		<path class="st2" d="M34.59,33.55c2.75,0.83,5.34,2.15,7.62,3.85c-2.37-1.59-5-2.75-7.74-3.43L34.59,33.55z"/>
		<path class="st2" d="M44.54,28.03c1.11,0.62,2.14,1.38,3.05,2.26c0.92,0.87,1.72,1.86,2.38,2.92c-0.73-1.02-1.58-1.95-2.53-2.76
			c-0.95-0.81-2-1.49-3.11-2.03L44.54,28.03z"/>
		<path class="st2" d="M58.74,33.08c-1.14-1.02-2.39-1.9-3.72-2.63c-0.66-0.37-1.34-0.7-2.04-0.98c-0.7-0.28-1.41-0.53-2.14-0.72
			c-1.45-0.38-2.96-0.56-4.45-0.5c-1.49,0.06-2.98,0.33-4.39,0.82c-1.41,0.48-2.77,1.16-4,2.01c-0.62,0.42-1.21,0.88-1.78,1.38
			l-0.42,0.38c-0.14,0.13-0.27,0.26-0.4,0.39c-0.14,0.13-0.26,0.27-0.39,0.4l-0.2,0.2l-0.19,0.21c-2.01,2.25-3.48,4.97-4.37,7.9
			c0.62-2.99,1.99-5.86,3.98-8.23c0.99-1.19,2.14-2.25,3.41-3.15c0.63-0.45,1.3-0.85,2-1.2c0.69-0.35,1.41-0.66,2.15-0.92
			c1.48-0.5,3.03-0.78,4.59-0.82c1.56-0.02,3.12,0.18,4.61,0.63c1.49,0.44,2.9,1.1,4.21,1.91C56.49,30.99,57.7,31.96,58.74,33.08z"
			/>
		<path class="st2" d="M38.69,30.23c-0.29-0.86-0.79-1.66-1.45-2.3c-0.33-0.32-0.71-0.6-1.11-0.83c-0.41-0.23-0.84-0.42-1.29-0.55
			c0.46,0.1,0.91,0.25,1.34,0.45c0.43,0.21,0.84,0.46,1.21,0.77c0.74,0.61,1.34,1.41,1.72,2.31L38.69,30.23z"/>
		<path class="st2" d="M51.06,28.59c-0.02-0.64-0.19-1.27-0.49-1.85c-0.3-0.58-0.73-1.1-1.26-1.5c0.57,0.35,1.07,0.82,1.45,1.39
			c0.38,0.57,0.63,1.23,0.74,1.92L51.06,28.59z"/>
	</g>
	<g>
		<path class="st12" d="M51.22,67.37c5.89,3.54,7.35,10.02,7.66,11.84c-5.35-5.65-9.6-6.89-12.56-6.92c-2.76-0.03-5.04,1-7.91-0.47
			c-1.81-0.93-3.1-2.47-5.41-2.39c-1.11,0.04-1.99,0.43-2.35,0.46C36.79,64.64,45.14,63.71,51.22,67.37z"/>
		<path class="st19" d="M35.98,63.43c2-3.17,8.1-3.64,11.28-2.97c6.18,1.3,11.3,8.93,11.74,18.87c-0.04-0.04-0.08-0.08-0.12-0.12
			c-0.31-1.82-1.77-8.3-7.66-11.84c-6.07-3.65-14.43-2.73-20.57,2.51c-0.08,0.01-0.13-0.01-0.16-0.05
			c-0.16-0.33,2.08-1.32,3.93-3.73C35.38,64.86,35.53,64.15,35.98,63.43z"/>
		<path class="st11" d="M35.98,63.43c2-3.17,8.1-3.64,11.28-2.97c6.18,1.3,11.3,8.93,11.74,18.87c-0.04-0.04-0.08-0.08-0.12-0.12
			c-0.31-1.82-1.77-8.3-7.66-11.84c-6.07-3.65-14.43-2.73-20.57,2.51c-0.08,0.01-0.13-0.01-0.16-0.05
			c-0.16-0.33,2.08-1.32,3.93-3.73C35.38,64.86,35.53,64.15,35.98,63.43z"/>
		<path class="st2" d="M39.06,65.51c1.74,2.28,3.08,4.86,3.93,7.58c-0.99-2.67-2.44-5.16-4.27-7.31L39.06,65.51z"/>
		<path class="st2" d="M50.35,66.85c0.54,1.16,0.93,2.37,1.16,3.62c0.23,1.24,0.3,2.51,0.22,3.76c0.01-1.26-0.14-2.51-0.44-3.72
			c-0.3-1.21-0.75-2.38-1.33-3.47L50.35,66.85z"/>
		<path class="st2" d="M58.92,79.25c-0.33-1.49-0.83-2.94-1.47-4.31c-0.32-0.69-0.68-1.35-1.08-1.99c-0.4-0.64-0.84-1.25-1.32-1.83
			c-0.96-1.15-2.07-2.18-3.32-3.01c-1.25-0.83-2.61-1.47-4.04-1.9c-1.43-0.43-2.92-0.67-4.42-0.7c-0.75-0.02-1.5,0.01-2.25,0.08
			l-0.56,0.06c-0.19,0.02-0.37,0.06-0.56,0.08c-0.19,0.02-0.37,0.06-0.56,0.1l-0.28,0.05l-0.28,0.06c-2.94,0.65-5.73,2-8.16,3.85
			c2.25-2.07,5.04-3.59,8.04-4.35c1.5-0.39,3.05-0.57,4.61-0.56c0.78,0,1.55,0.07,2.32,0.19c0.77,0.12,1.53,0.29,2.28,0.51
			c1.49,0.46,2.91,1.14,4.2,2.02c1.28,0.89,2.43,1.97,3.37,3.2c0.95,1.23,1.71,2.59,2.3,4.01C58.32,76.24,58.74,77.73,58.92,79.25z"
			/>
		<path class="st2" d="M44.33,65.22c0.27-0.87,0.34-1.81,0.17-2.72c-0.08-0.46-0.22-0.9-0.41-1.33c-0.19-0.43-0.44-0.83-0.73-1.2
			c0.32,0.35,0.6,0.74,0.82,1.15c0.23,0.42,0.41,0.86,0.53,1.33c0.25,0.93,0.26,1.93,0.04,2.88L44.33,65.22z"/>
		<path class="st2" d="M55.32,71.12c0.35-0.53,0.59-1.14,0.69-1.79c0.1-0.64,0.05-1.32-0.14-1.96c0.26,0.62,0.39,1.29,0.36,1.98
			c-0.02,0.68-0.21,1.37-0.53,1.99L55.32,71.12z"/>
	</g>
</g>
<linearGradient id="SVGID_5_" gradientUnits="userSpaceOnUse" x1="-116.8844" y1="211" x2="-116.8844" y2="130.2294">
	<stop  offset="2.184394e-07" style="stop-color:#F4846E;stop-opacity:0"/>
	<stop  offset="1" style="stop-color:#FEE992"/>
</linearGradient>
<path class="st20" d="M-86.6,130.23c-34.71,26.92-69.43,53.85-104.14,80.77c49.24,0,98.47,0,147.71,0
	c-5.95-22.98-11.89-45.95-17.84-68.93C-69.45,138.13-78.02,134.18-86.6,130.23z"/>
</svg>
